<svg width="296" height="296" viewBox="0 0 296 296" fill="none" xmlns="http://www.w3.org/2000/svg">
<path d="M76.3072 115.351L78.9224 115.164C100.33 113.364 116.384 113.42 127.083 115.327C133.294 116.356 138.775 118.212 143.522 120.894C145.881 122.254 148.01 123.873 149.906 125.753L152.556 128.796C156.397 133.5 158.991 141.3 160.337 152.191C160.89 157.274 161.174 162.51 161.184 167.901C161.358 168.472 161.093 178.575 160.386 198.209C160.268 202.665 160.362 206.501 160.661 209.717C161.358 216.021 163.268 219.098 166.391 218.954C171.434 218.449 176.966 212.995 182.985 202.59C187.136 196.051 190.558 186.017 193.25 172.495C194.741 163.376 194.834 154.419 193.531 145.63C192.227 136.842 189.177 129.229 184.384 122.799L180.38 118.434C177.134 115.6 174.041 113.583 171.1 112.384C164.657 109.595 157.076 108.003 148.354 107.605C136.291 106.357 112.273 108.94 76.3072 115.351Z" fill="#C9D2D3"/>
<path d="M76.2758 117.098H76.2812C87.0098 117.071 97.7492 117.047 104.814 116.857C107.495 116.785 109.654 116.689 111.381 116.615C112.15 116.58 112.803 116.553 113.411 116.532C112.385 118.546 112.281 120.979 112.206 123.198L112.2 123.342L112.195 123.486C112.136 125.25 112.067 126.943 112.005 128.443C111.919 130.531 111.844 132.353 111.823 133.754C111.793 135.594 111.852 136.757 112.104 140.556C112.131 140.964 112.19 141.836 112.225 142.362L112.409 145.141C112.921 152.864 113.831 167.044 114.214 174.916C114.597 182.796 114.447 184.274 113.904 185.901C113.355 187.544 112.401 189.334 110.379 191.119C110.061 191.402 109.702 191.692 109.335 191.991C107.364 193.597 104.9 195.603 103.746 199.959C102.385 205.089 102.843 213.473 103.416 217.978C103.992 222.513 104.718 223.34 107.141 223.772C108.866 224.079 111.488 224.231 114.498 224.372C115.004 224.396 115.409 224.415 115.934 224.439C116.437 224.463 116.949 224.487 117.468 224.511L117.699 224.522C118.901 224.58 120.141 224.639 121.349 224.639C124.319 224.639 127.201 224.284 128.845 222.542C130.996 220.264 130.915 215.695 130.776 211.189C130.768 210.931 130.765 210.885 130.757 210.626L130.741 210.072C130.728 209.655 130.714 209.186 130.701 208.77C130.57 204.307 130.447 199.956 129.549 197.214C128.896 195.208 127.833 194.061 126.574 192.991C126.263 192.727 125.921 192.453 125.588 192.188C125.23 191.9 124.855 191.602 124.48 191.282C122.709 189.78 120.77 187.744 119.418 185.752C118.368 180.657 118.226 174.86 118.598 169.96C118.778 167.597 119.07 165.46 119.402 163.054C119.83 159.927 120.318 156.377 120.677 151.407C121.309 142.634 121.542 129.403 120.835 122.265C120.211 115.959 118.829 114.158 117.308 114.158C117.139 114.158 116.976 114.182 116.818 114.219C115.961 114.433 115.243 115.134 114.793 115.953C114.651 115.956 114.522 115.956 114.37 115.959C115.264 114.694 116.67 113.696 118.917 113.166C120.363 112.824 122.16 112.672 124.132 112.672C129.466 112.672 135.964 113.785 140.024 115.142C138.685 117.095 138.24 122.23 138.007 127.344V127.346V127.357C137.769 132.652 137.75 138.062 138.192 145.597C138.342 148.18 138.548 151.005 138.773 153.893C138.995 156.726 139.252 159.813 139.483 162.566C139.694 165.086 139.908 167.631 140.074 169.776C140.621 176.773 140.816 181.078 140.369 184.754C139.925 188.422 138.837 191.476 137.316 194.656C137.032 195.251 136.762 195.787 136.459 196.395C135.128 199.06 133.698 201.917 133.194 205.243C132.581 209.298 133.342 214.03 134.499 217.237C135.661 220.462 137.233 222.169 138.995 223.287C140.321 224.127 141.764 224.639 143.17 224.639C143.618 224.639 144.062 224.588 144.496 224.476C146.296 224.02 147.876 222.588 149.392 220.483C150.916 218.368 152.41 215.519 152.913 211.661C153.414 207.82 152.932 202.963 151.296 199.519C151.052 199.004 150.782 198.524 150.495 198.068C149.638 196.705 148.62 195.571 147.667 194.507C147.525 194.347 147.399 194.194 147.26 194.04C146.681 192.199 146.041 189.876 145.632 186.845C144.756 180.323 144.967 170.571 145.458 163.078V163.072C145.583 161.141 145.731 159.359 145.883 157.695C146.119 155.139 146.368 152.912 146.609 150.756C146.818 148.884 147.022 147.059 147.185 145.304C147.654 140.22 147.825 135.263 147.619 130.24C147.413 125.231 146.831 120.123 146.087 117.78C145.658 116.433 145.123 115.852 144.41 115.852C144.086 115.852 143.77 115.985 143.47 116.135C143.101 115.887 142.686 115.638 142.171 115.401C141.813 115.236 141.406 115.073 140.972 114.913C141.266 114.713 141.596 114.625 141.981 114.625C142.605 114.625 143.342 114.828 144.239 115.078C145.08 115.313 146.039 115.582 147.107 115.716C147.747 115.796 148.422 115.828 149.119 115.828C150.581 115.828 152.161 115.684 153.749 115.542C155.297 115.404 156.853 115.262 158.339 115.246C158.433 115.246 158.513 115.244 158.607 115.244C160.485 115.244 162.233 115.444 163.698 115.764C163.053 116.74 162.871 118.173 162.678 119.858L162.657 120.053L162.632 120.256C162.619 120.379 162.579 120.72 162.563 120.853C162.207 123.942 161.741 128 161.907 132.887C161.931 133.596 161.968 134.327 162.016 135.077C162.148 137.123 162.359 139.339 162.6 141.866C162.916 145.197 163.289 149.097 163.589 153.808C164.205 163.419 164.547 176.509 164.255 183.255C164.036 188.337 163.455 189.769 162.493 191.258C162.338 191.498 162.188 191.719 162.011 191.978C161.818 192.261 161.607 192.57 161.384 192.911C159.681 195.544 157.212 200.391 156.272 205.089C155.332 209.794 155.929 214.345 157.654 217.957C159.37 221.55 162.231 224.255 164.812 224.804C165.147 224.876 165.479 224.911 165.806 224.911C168.018 224.911 169.93 223.319 171.725 220.963C173.792 218.248 175.801 214.382 176.029 210.376C176.256 206.372 174.7 202.266 173.179 198.828C172.941 198.289 172.708 197.777 172.472 197.262C171.205 194.477 170.04 191.919 169.427 188.251C168.698 183.895 168.744 177.965 169.189 169.258C169.352 166.057 169.566 162.512 169.791 158.836C170.174 152.522 170.579 145.87 170.755 140.308C171.036 131.51 170.761 125.356 170.402 121.459V121.454C170.054 117.69 169.633 115.734 168.152 115.513C168.056 115.5 167.959 115.492 167.86 115.492C167.346 115.492 166.754 115.676 166.186 115.959C165.742 115.777 165.254 115.606 164.703 115.454C165.035 115.22 165.45 115.062 165.983 114.99C166.237 114.956 166.518 114.94 166.829 114.94C168.393 114.94 170.546 115.35 172.908 115.804C174.467 116.103 176.109 116.417 177.705 116.633C180.006 116.946 182.207 117.052 184.141 117.052C185.865 117.052 187.362 116.967 188.538 116.865C187.212 120.848 186.899 127.989 186.921 132.815C186.931 135.029 187.012 136.779 187.143 138.55C187.234 139.796 187.354 141.076 187.486 142.506C187.665 144.44 187.869 146.627 188.085 149.588V149.591V149.593V149.591C188.696 157.871 189.39 171.801 189.583 180.977C189.775 190.172 189.454 194.52 187.534 197.929C187.215 198.495 186.851 199.036 186.457 199.556C185.394 200.962 184.119 202.21 182.911 203.389C181.867 204.411 180.865 205.39 180.137 206.353C178.233 208.869 178.171 211.285 179.055 213.862C179.933 216.415 181.752 219.152 183.87 221.024C186.005 222.91 188.444 223.916 192.012 224.025C192.229 224.031 192.448 224.036 192.673 224.036C196.117 224.036 200.426 223.263 203.217 221.766C206.216 220.16 207.438 217.741 208.174 215.871C208.911 213.998 209.189 212.603 208.911 210.885C208.635 209.17 207.805 207.145 205.368 205.209C204.224 204.299 202.713 203.413 201.005 202.707C198.798 200.591 196.248 197.806 195.177 194.237C194.537 192.108 194.419 189.689 194.468 187.158C194.489 185.994 194.548 184.829 194.604 183.644C194.66 182.476 194.719 181.294 194.741 180.145C194.778 178.232 194.719 176.381 194.655 174.399C194.559 171.366 194.451 168.029 194.66 163.67V163.673L194.663 163.643C194.829 160.221 195.193 156.164 195.574 151.906C195.994 147.195 196.439 142.239 196.664 137.595C197.095 128.757 196.733 121.059 195.74 117.45C195.448 116.391 195.092 115.646 194.679 115.169C195.268 115.494 195.874 115.855 196.498 116.241C197.167 116.657 197.847 117.079 198.511 117.436C201.717 119.16 204.513 119.344 208 119.344C208.094 119.344 208.19 119.344 208.284 119.344C211.902 119.333 216.326 119.168 220.743 119C220.89 118.994 221.005 118.869 221 118.722C220.994 118.575 220.869 118.461 220.721 118.466C216.3 118.634 211.886 118.799 208.281 118.81C208.188 118.81 208.091 118.81 207.997 118.81C204.532 118.81 201.846 118.623 198.763 116.967C198.12 116.62 197.451 116.207 196.779 115.788C195.097 114.742 193.305 113.619 191.765 113.619C190.887 113.619 190.099 113.979 189.47 114.86C189.194 115.246 188.948 115.74 188.723 116.316C187.531 116.425 185.951 116.521 184.133 116.521C182.22 116.521 180.043 116.415 177.769 116.108C176.192 115.895 174.561 115.582 173.002 115.281C170.662 114.833 168.449 114.406 166.821 114.406C166.494 114.406 166.186 114.422 165.902 114.462C165.083 114.574 164.51 114.878 164.076 115.305C162.504 114.937 160.618 114.707 158.602 114.707C158.511 114.707 158.422 114.707 158.329 114.71C156.816 114.726 155.238 114.868 153.696 115.006C152.102 115.15 150.549 115.289 149.116 115.289C148.436 115.289 147.785 115.257 147.172 115.18C146.149 115.052 145.225 114.793 144.381 114.558C143.508 114.313 142.691 114.083 141.979 114.083C141.379 114.083 140.843 114.262 140.385 114.697C136.263 113.283 129.582 112.133 124.129 112.133C122.136 112.133 120.294 112.285 118.791 112.643C116.196 113.256 114.651 114.473 113.714 115.977C113.023 116.001 112.259 116.033 111.351 116.073C109.621 116.151 107.473 116.244 104.793 116.316C97.7331 116.505 87.0045 116.529 76.2732 116.556H76.2678C76.1205 116.556 76 116.676 76 116.823C76.008 116.978 76.1286 117.098 76.2758 117.098ZM201.549 203.963C201.752 204.15 202.023 204.403 202.21 204.574C202.462 204.809 202.545 204.883 202.786 205.105C204.462 206.663 205.579 207.786 206.34 209.343C207.277 211.267 207.663 213.827 206.067 216.212C204.454 218.626 200.796 220.902 196.388 221.083C196.195 221.091 195.997 221.094 195.801 221.094C191.516 221.094 186.661 219.251 183.889 217.335C181.026 215.359 180.415 213.331 180.488 211.171C180.56 208.991 181.326 206.703 183.814 204.859C186.171 203.112 190.081 201.76 193.937 201.76C194.189 201.76 194.441 201.765 194.692 201.778C196.811 201.877 198.873 202.413 200.705 203.16C200.991 203.443 201.278 203.712 201.549 203.963ZM196.128 137.576C195.903 142.207 195.461 147.15 195.038 151.863C194.658 156.116 194.293 160.191 194.127 163.622L194.125 163.651V163.654C193.913 168.037 194.02 171.392 194.117 174.425C194.181 176.413 194.24 178.24 194.202 180.142C194.181 181.292 194.125 182.447 194.066 183.626C194.007 184.807 193.951 185.981 193.927 187.155C193.876 189.7 193.993 192.188 194.658 194.397C195.63 197.633 197.764 200.228 199.77 202.256C198.182 201.714 196.468 201.335 194.711 201.253C194.451 201.239 194.192 201.234 193.932 201.234C189.968 201.234 185.946 202.619 183.49 204.438C180.846 206.396 180.022 208.85 179.947 211.16C179.869 213.489 180.557 215.695 183.578 217.781C186.428 219.749 191.388 221.635 195.796 221.635C195.999 221.635 196.203 221.633 196.406 221.622C200.973 221.435 204.794 219.08 206.511 216.514C208.247 213.918 207.81 211.147 206.819 209.114C206.01 207.455 204.821 206.273 203.147 204.718C202.922 204.51 202.807 204.403 202.572 204.184C202.462 204.08 202.349 203.979 202.242 203.878C203.305 204.422 204.259 205.022 205.03 205.636C207.355 207.484 208.121 209.386 208.378 210.981C208.635 212.571 208.386 213.865 207.671 215.687C206.953 217.509 205.793 219.789 202.96 221.307C200.274 222.745 196.058 223.513 192.67 223.513C192.454 223.513 192.237 223.511 192.028 223.503C188.576 223.399 186.259 222.433 184.226 220.635C182.175 218.824 180.41 216.167 179.564 213.699C178.723 211.256 178.79 209.031 180.565 206.684C181.264 205.758 182.234 204.809 183.289 203.779C184.491 202.603 185.796 201.327 186.886 199.884C187.293 199.345 187.668 198.788 188.002 198.196C190.006 194.64 190.311 190.137 190.121 180.972C189.931 171.782 189.234 157.847 188.624 149.559V149.556V149.553V149.556C188.404 146.587 188.203 144.402 188.024 142.466C187.893 141.036 187.775 139.761 187.681 138.52C187.553 136.763 187.47 135.021 187.459 132.823C187.435 127.81 187.786 120.587 189.122 116.823C189.489 116.788 189.824 116.751 190.118 116.719C190.292 116.7 190.429 116.687 190.576 116.671C190.049 117.599 189.837 118.626 190.322 119.346C190.75 119.984 191.661 120.275 192.429 120.275C192.97 120.275 193.536 120.131 193.86 119.762C193.87 119.749 193.865 119.754 193.876 119.744C194.623 118.853 193.744 117.151 192.984 116.516C192.604 116.199 192.194 116.095 191.685 116.079C191.776 115.977 191.846 115.865 191.947 115.766C192.413 115.326 192.903 115.033 193.356 115.033C193.929 115.033 194.658 115.532 195.225 117.599C196.192 121.118 196.559 128.741 196.128 137.576ZM191.567 116.596C192.054 116.596 192.349 116.684 192.636 116.922C193.386 117.546 193.878 118.898 193.461 119.397C193.45 119.408 193.458 119.4 193.452 119.408C193.278 119.605 192.903 119.738 192.424 119.738C191.744 119.738 191.05 119.474 190.764 119.048C190.399 118.506 190.611 117.527 191.227 116.615C191.342 116.607 191.471 116.596 191.567 116.596ZM189.912 115.177C190.445 114.435 191.072 114.161 191.771 114.161C192.234 114.161 192.74 114.31 193.265 114.507C192.633 114.542 192.041 114.932 191.575 115.377C191.35 115.59 191.141 115.838 190.948 116.095C190.916 116.097 190.89 116.097 190.855 116.1C190.614 116.121 190.351 116.151 190.054 116.185C189.832 116.209 189.588 116.236 189.331 116.263C189.513 115.844 189.703 115.47 189.912 115.177ZM166.237 120.08C165.975 120.08 165.707 120.035 165.453 119.946C164.657 119.666 164.124 119.032 164.379 118.314C164.405 118.237 164.446 118.151 164.494 118.066C164.796 117.54 165.482 116.959 166.221 116.551C166.489 116.668 166.733 116.791 166.942 116.919C168.289 117.743 168.259 118.655 167.903 119.232C167.86 119.301 167.815 119.362 167.764 119.424C167.405 119.85 166.84 120.08 166.237 120.08ZM164.028 117.802C163.964 117.914 163.913 118.026 163.872 118.138C163.465 119.288 164.381 120.139 165.273 120.451C165.586 120.56 165.913 120.616 166.237 120.616C166.968 120.616 167.694 120.336 168.171 119.773C168.24 119.693 168.299 119.608 168.356 119.517C168.891 118.647 168.779 117.423 167.217 116.468C167.102 116.399 166.96 116.332 166.829 116.265C167.191 116.124 167.544 116.033 167.855 116.033C167.93 116.033 167.999 116.039 168.066 116.049C169.033 116.193 169.494 117.508 169.863 121.515V121.518C170.22 125.391 170.495 131.518 170.214 140.297C170.035 145.854 169.633 152.49 169.25 158.81C169.028 162.475 168.811 166.041 168.648 169.237C168.203 177.939 168.155 183.924 168.894 188.345C169.521 192.09 170.712 194.704 171.979 197.489C172.22 198.02 172.44 198.5 172.684 199.049C174.205 202.482 175.707 206.486 175.488 210.349C175.268 214.209 173.324 217.976 171.294 220.643C169.515 222.98 167.742 224.378 165.803 224.378C165.514 224.378 165.222 224.346 164.922 224.284C162.571 223.785 159.818 221.249 158.136 217.73C156.462 214.23 155.876 209.797 156.794 205.195C157.715 200.583 160.15 195.8 161.832 193.202C162.046 192.869 162.258 192.562 162.45 192.279C162.624 192.023 162.782 191.794 162.94 191.548C163.98 189.945 164.566 188.401 164.788 183.279C165.083 176.503 164.737 163.393 164.122 153.773C163.819 149.052 163.447 145.144 163.131 141.815C162.89 139.286 162.681 137.077 162.549 135.042C162.501 134.287 162.464 133.583 162.44 132.868C162.276 128.024 162.737 124.004 163.093 120.915C163.117 120.715 163.139 120.509 163.163 120.317L163.187 120.115L163.208 119.92C163.42 118.053 163.605 116.711 164.239 115.897C164.729 116.02 165.185 116.153 165.589 116.3C164.914 116.737 164.325 117.287 164.028 117.802ZM144.828 202.288C144.285 201.914 143.963 201.506 143.671 201.138C143.527 200.957 143.387 200.778 143.229 200.623C143.098 200.495 142.884 200.308 142.621 200.308C142.153 200.308 141.872 200.85 141.679 201.896C141.119 202.157 140.554 202.512 140.058 202.885C140.053 202.869 140.05 202.851 140.042 202.835C139.718 202.05 139.234 201.578 138.81 201.165C138.535 200.895 138.296 200.661 138.111 200.372C137.651 199.658 137.493 198.559 138.216 197.134C138.497 196.579 138.915 195.974 139.386 195.291C139.954 194.469 140.591 193.544 141.122 192.498C141.288 192.17 141.443 191.831 141.585 191.476C142.102 190.175 142.402 188.707 142.613 187.662C142.691 187.278 142.755 186.995 142.812 186.763C142.862 186.92 142.921 187.112 142.999 187.366C143.339 188.491 143.883 190.3 144.892 191.903C145.423 192.746 146.092 193.528 146.783 194.309C146.925 194.757 147.064 195.187 147.193 195.579C147.584 196.769 147.881 197.678 147.98 198.42C147.999 198.564 148.01 198.695 148.015 198.823C148.047 199.911 147.501 200.613 146.829 201.466C146.497 201.888 146.159 202.378 145.859 202.923C145.715 202.832 145.567 202.741 145.431 202.661C145.211 202.531 145.005 202.41 144.828 202.288ZM143.805 211.019C143.819 212.064 143.827 212.771 143.537 213.515C143.275 214.19 142.881 214.641 142.667 214.641C142.6 214.641 142.34 214.545 142.137 213.574V213.571C141.679 211.368 141.759 205.742 142.059 203C142.091 202.707 142.126 202.464 142.161 202.242C142.407 202.144 142.635 202.08 142.836 202.058C142.876 202.053 142.916 202.053 142.953 202.053C143.484 202.053 143.872 202.477 143.971 203.987C143.998 204.384 144.001 204.833 143.993 205.329C143.979 206.06 143.936 206.86 143.894 207.647C143.853 208.388 143.813 209.127 143.802 209.759C143.794 210.226 143.8 210.653 143.805 211.019ZM143.393 201.637C143.253 201.586 143.125 201.522 142.953 201.522C142.897 201.522 142.841 201.525 142.782 201.53C142.627 201.546 142.447 201.61 142.273 201.664C142.445 200.922 142.608 200.837 142.621 200.837C142.643 200.837 142.715 200.863 142.852 200.999C142.98 201.125 143.101 201.277 143.248 201.463C143.291 201.52 143.35 201.584 143.393 201.637ZM139.769 203.8C140.042 204.945 140.117 206.473 140.093 207.967C140.061 209.821 139.895 211.469 139.531 212.291C139.351 212.696 139.185 212.771 139.14 212.771C139.105 212.771 138.888 212.694 138.711 211.971C138.401 210.714 138.366 208.095 138.551 206.478C138.717 205.003 139.057 204.435 139.769 203.8ZM143.438 116.748C144.657 117.66 144.705 118.506 144.421 119.114C144.094 119.816 143.286 120.371 142.656 120.563C142.479 120.616 142.324 120.64 142.19 120.64C141.515 120.64 141.146 120.024 141.146 119.269C141.146 119.096 141.167 118.925 141.207 118.77C141.446 117.85 142.372 117.322 143.371 116.783C143.395 116.769 143.414 116.761 143.438 116.748ZM142.935 116.412C142.027 116.903 140.974 117.519 140.685 118.634C140.632 118.837 140.607 119.05 140.607 119.266C140.607 120.12 141.052 121.171 142.188 121.171C142.383 121.171 142.589 121.139 142.809 121.072C143.543 120.848 144.496 120.213 144.906 119.338C145.316 118.458 145.123 117.458 143.963 116.492C144.127 116.428 144.274 116.385 144.413 116.385C144.732 116.385 145.155 116.609 145.578 117.941C146.301 120.208 146.88 125.252 147.086 130.262C147.292 135.258 147.123 140.19 146.655 145.256C146.491 147.011 146.29 148.814 146.079 150.698C145.838 152.853 145.589 155.083 145.35 157.647C145.195 159.322 145.05 161.088 144.925 163.03V163.04C144.432 170.539 144.218 180.339 145.101 186.917C145.433 189.388 145.918 191.396 146.4 193.053C146.015 192.583 145.656 192.111 145.345 191.618C144.378 190.084 143.853 188.342 143.513 187.211C143.355 186.685 143.216 186.205 143.071 186.024C143.037 185.981 142.967 185.904 142.849 185.882C142.83 185.88 142.812 185.877 142.793 185.877C142.632 185.877 142.538 185.992 142.501 186.043L142.72 186.195H142.453L142.501 186.043C142.463 186.096 142.437 186.155 142.413 186.213C142.308 186.475 142.206 186.976 142.088 187.558C141.874 188.611 141.585 190.028 141.087 191.282C140.953 191.62 140.803 191.943 140.645 192.261C140.133 193.269 139.515 194.165 138.947 194.989C138.484 195.662 138.042 196.299 137.742 196.894C136.949 198.457 137.083 199.762 137.664 200.661C137.886 201.007 138.17 201.282 138.441 201.546C138.861 201.96 139.274 202.362 139.552 203.037C139.576 203.093 139.59 203.176 139.611 203.235C139.595 203.248 139.576 203.261 139.56 203.275C138.642 204.056 138.213 204.729 138.023 206.42C137.838 208.066 137.865 210.754 138.197 212.099C138.363 212.768 138.66 213.305 139.148 213.305C139.555 213.305 139.847 212.915 140.029 212.507C140.441 211.571 140.605 209.816 140.634 207.975C140.661 206.39 140.575 204.689 140.224 203.432C140.65 203.099 141.119 202.781 141.59 202.528C141.572 202.672 141.547 202.784 141.531 202.941C141.229 205.697 141.14 211.392 141.617 213.678L141.614 213.662L141.617 213.681C141.805 214.585 142.129 215.172 142.672 215.172C143.307 215.172 143.811 214.3 144.041 213.705C144.373 212.849 144.36 212.035 144.346 211.008C144.341 210.634 144.335 210.226 144.343 209.773C144.354 209.151 144.394 208.42 144.435 207.679C144.477 206.892 144.52 206.086 144.534 205.342C144.544 204.841 144.539 204.374 144.512 203.958C144.472 203.336 144.36 202.835 144.183 202.429C144.301 202.528 144.389 202.629 144.531 202.728C144.724 202.861 144.949 202.992 145.166 203.123C145.318 203.213 145.471 203.307 145.624 203.403C145.581 203.499 145.522 203.574 145.484 203.678C144.702 205.833 145.072 209.247 145.441 211.005C145.696 212.214 145.988 212.862 146.427 212.971C146.47 212.982 146.513 212.987 146.556 212.987C146.58 212.987 146.604 212.985 146.625 212.982C146.743 212.966 146.839 212.915 146.917 212.859C147.319 212.563 147.528 211.835 147.766 210.397C148.01 208.93 148.315 206.484 147.737 204.963C147.429 204.158 146.877 203.635 146.309 203.227C146.588 202.707 146.912 202.237 147.257 201.794C147.916 200.957 148.594 200.111 148.556 198.807C148.551 198.657 148.54 198.505 148.519 198.348C148.412 197.548 148.093 196.582 147.71 195.414C147.702 195.39 147.694 195.363 147.686 195.339C148.511 196.267 149.338 197.227 150.051 198.356C150.329 198.796 150.586 199.255 150.822 199.751C152.407 203.083 152.887 207.831 152.394 211.595C151.904 215.345 150.452 218.112 148.966 220.174C147.474 222.246 145.988 223.553 144.376 223.961C143.987 224.06 143.588 224.108 143.181 224.108C141.904 224.108 140.559 223.641 139.295 222.838C137.643 221.79 136.14 220.182 135.015 217.058C133.883 213.916 133.141 209.274 133.738 205.323C134.228 202.09 135.615 199.311 136.952 196.635C137.254 196.03 137.528 195.483 137.811 194.888C139.349 191.674 140.46 188.563 140.913 184.821C141.365 181.084 141.167 176.728 140.621 169.736C140.455 167.607 140.238 165.025 140.029 162.52C139.801 159.794 139.539 156.657 139.319 153.851C139.094 150.959 138.891 148.148 138.738 145.565C138.299 138.051 138.315 132.66 138.553 127.386V127.378C138.794 122.051 139.263 117.002 140.546 115.321C141.065 115.508 141.542 115.697 141.957 115.887C142.332 116.063 142.651 116.239 142.935 116.412ZM146.59 212.43C146.561 212.451 146.55 212.454 146.548 212.454C146.494 212.438 146.237 212.214 145.958 210.896C145.589 209.149 145.254 205.862 145.98 203.859C145.999 203.803 146.033 203.766 146.055 203.712C146.542 204.072 146.979 204.507 147.228 205.155C147.747 206.518 147.48 208.815 147.23 210.312C146.979 211.835 146.781 212.291 146.59 212.43ZM119.276 187.544C120.487 192.287 122.584 196.23 123.639 198.217C123.818 198.553 123.96 198.823 124.07 199.041L124.065 199.031L124.07 199.041C124.212 199.327 124.26 199.452 124.284 199.527C124.273 199.53 124.279 199.53 124.268 199.532C124.164 199.556 124.006 199.588 123.829 199.676C123.746 199.719 123.66 199.775 123.577 199.839C123.398 199.487 123.197 199.151 122.953 198.855C122.067 197.782 120.725 197.121 119.418 197.121C118.336 197.121 117.292 197.596 116.56 198.631C116.044 198.366 115.468 198.193 114.846 198.193C113.486 198.193 112.018 198.863 110.96 200.159C110.818 199.778 110.687 199.404 110.594 199.039C110.419 198.385 110.353 197.772 110.46 197.198C110.628 196.315 111.22 195.472 111.992 194.384C112.712 193.368 113.566 192.164 114.247 190.593C115.184 188.433 115.794 185.578 116.22 183.583C116.429 182.604 116.593 181.844 116.726 181.452C116.732 181.441 116.732 181.438 116.737 181.428C116.809 181.582 116.903 181.822 117.04 182.18C117.297 182.86 117.648 183.796 118.189 184.778C118.403 185.17 118.657 185.568 118.925 185.965C119.035 186.499 119.145 187.029 119.276 187.544ZM123.631 215.841C123.628 215.844 123.631 215.841 123.628 215.844C123.283 215.673 122.533 213.753 122.337 210.704C122.11 207.151 122.669 202.509 123.446 200.89C124.073 202.699 124.134 205.11 124.148 207.78C124.166 211.443 124.097 215.201 123.631 215.841ZM118.039 213.793C117.68 215.999 117.107 217.829 116.767 218.082C116.373 217.671 116.022 214.724 115.797 210.528C115.58 206.468 115.503 201.68 116.759 199.348C118.202 200.493 118.408 203.237 118.462 206.012C118.515 208.775 118.438 211.325 118.039 213.793ZM111.651 210.53C111.437 212.985 111.212 215.343 110.904 215.881C110.642 215.535 110.221 214.062 109.929 211.539C109.557 208.327 109.434 203.822 110.813 201.274C111.084 201.962 111.351 202.648 111.536 203.347C112.085 205.419 111.906 207.609 111.692 210.072L111.681 210.189L111.67 210.306C111.67 210.317 111.654 210.52 111.651 210.53ZM115.312 116.481C115.971 116.481 116.48 116.508 116.871 116.569C118.023 116.748 118.116 117.194 118.044 117.652C118.017 117.82 117.964 118.002 117.894 118.197C117.578 119.069 117.117 119.722 116.526 119.722C116.52 119.722 116.515 119.722 116.507 119.722C115.845 119.709 114.854 118.938 114.825 117.786C114.814 117.372 114.929 116.919 115.125 116.487C115.184 116.484 115.256 116.481 115.312 116.481ZM114.319 116.497C114.402 116.495 114.469 116.495 114.549 116.495C114.38 116.935 114.281 117.386 114.292 117.802C114.33 119.229 115.54 120.24 116.499 120.259C116.51 120.259 116.518 120.259 116.528 120.259C117.53 120.259 118.1 119.213 118.4 118.381C118.475 118.175 118.542 117.954 118.577 117.738C118.706 116.924 118.331 116.257 116.957 116.044C116.55 115.98 116.036 115.956 115.422 115.953C115.811 115.366 116.357 114.892 116.959 114.742C117.08 114.713 117.2 114.697 117.318 114.697C118.282 114.697 119.672 115.865 120.312 122.323C121.014 129.419 120.784 142.615 120.152 151.375C119.796 156.326 119.308 159.861 118.88 162.987C118.55 165.385 118.253 167.546 118.074 169.925C117.733 174.425 117.825 179.694 118.652 184.503C118.141 183.57 117.8 182.673 117.549 181.999C117.361 181.502 117.19 181.025 117 180.846C116.943 180.795 116.852 180.731 116.729 180.731C116.593 180.731 116.496 180.806 116.44 180.87C116.349 180.972 116.285 181.124 116.228 181.286C116.081 181.716 115.91 182.519 115.703 183.479C115.272 185.49 114.672 188.286 113.762 190.391C113.106 191.906 112.283 193.063 111.56 194.082C110.81 195.139 110.133 196.086 109.94 197.105C109.812 197.788 109.897 198.487 110.082 199.18C110.211 199.668 110.395 200.167 110.588 200.669C110.529 200.759 110.452 200.823 110.398 200.922C108.871 203.624 109.032 208.375 109.404 211.605C109.704 214.196 110.165 216.082 110.693 216.415C110.757 216.455 110.84 216.487 110.934 216.487C111.051 216.487 111.151 216.436 111.223 216.372C111.244 216.354 111.26 216.335 111.276 216.316C111.759 215.761 111.986 212.977 112.195 210.578C112.214 210.378 112.198 210.554 112.214 210.354L112.225 210.237L112.235 210.12C112.449 207.676 112.64 205.393 112.064 203.213C111.863 202.453 111.568 201.709 111.29 200.999C111.255 200.914 111.226 200.831 111.193 200.746C112.155 199.404 113.574 198.732 114.854 198.732C115.393 198.732 115.872 198.876 116.298 199.089C114.946 201.597 115.055 206.577 115.267 210.56C115.484 214.622 115.808 218.05 116.475 218.552C116.48 218.557 116.483 218.557 116.491 218.562C116.566 218.616 116.66 218.65 116.759 218.65C116.828 218.65 116.895 218.634 116.951 218.608C117.626 218.312 118.234 215.967 118.572 213.884V213.881C118.979 211.368 119.056 208.783 119 206.006C118.947 203.312 118.778 200.204 117.045 198.889C117.666 198.046 118.524 197.662 119.423 197.662C120.556 197.662 121.751 198.241 122.543 199.204C122.803 199.519 123.007 199.884 123.189 200.276C123.114 200.386 123.042 200.509 122.972 200.655C122.131 202.392 121.579 207.156 121.807 210.744C121.994 213.665 122.725 216.132 123.489 216.378C123.537 216.394 123.588 216.402 123.641 216.402C123.741 216.402 123.834 216.37 123.912 216.316C123.974 216.274 124.027 216.218 124.07 216.162C124.67 215.337 124.707 211.291 124.691 207.786C124.678 205.009 124.616 202.344 123.813 200.362C123.909 200.266 123.998 200.204 124.075 200.164C124.185 200.108 124.287 200.087 124.389 200.063C124.445 200.05 124.531 200.034 124.606 199.999C124.608 199.996 124.619 199.994 124.622 199.991C124.764 199.919 124.852 199.788 124.849 199.61C124.847 199.42 124.731 199.161 124.555 198.812V198.809C124.442 198.585 124.295 198.308 124.118 197.974C123.063 195.99 120.995 192.098 119.801 187.419C119.772 187.307 119.753 187.19 119.723 187.078C121.028 188.777 122.648 190.428 124.142 191.692C124.525 192.018 124.906 192.322 125.264 192.607C125.596 192.874 125.934 193.143 126.237 193.402C127.452 194.435 128.438 195.504 129.051 197.382C129.919 200.036 130.045 204.288 130.176 208.789C130.187 209.194 130.203 209.685 130.216 210.09L130.232 210.645C130.248 211.155 130.235 210.698 130.251 211.208C130.393 215.817 130.428 220.099 128.465 222.177C126.994 223.735 124.343 224.105 121.36 224.105C120.165 224.105 118.939 224.047 117.736 223.988L117.506 223.977C117.005 223.953 116.456 223.929 115.971 223.905C115.43 223.881 115.061 223.863 114.538 223.839C111.517 223.695 108.936 223.545 107.251 223.247C105.186 222.878 104.53 222.38 103.962 217.911C103.392 213.414 102.947 205.118 104.278 200.098C105.387 195.915 107.736 194 109.691 192.407C110.058 192.108 110.422 191.812 110.752 191.519C112.851 189.662 113.853 187.79 114.429 186.069C115.007 184.33 115.146 182.743 114.766 174.89C114.383 167.012 113.473 152.829 112.961 145.107L112.776 142.327C112.744 141.828 112.68 140.903 112.656 140.521C112.404 136.72 112.348 135.581 112.374 133.762C112.396 132.369 112.471 130.555 112.557 128.464C112.616 126.991 112.688 125.242 112.747 123.502L112.752 123.358L112.757 123.214C112.835 120.869 112.945 118.437 114.038 116.508C114.115 116.505 114.228 116.5 114.319 116.497Z" fill="black"/>
</svg>
