<svg width="296" height="296" viewBox="0 0 296 296" fill="none" xmlns="http://www.w3.org/2000/svg">
<path d="M131.311 218.319L130.787 218.309C127.279 218.25 124.645 218.241 122.89 218.284C117.125 218.804 114.226 219.016 114.196 218.922C112.572 218.885 111.45 218.767 110.838 218.574C108.59 218.403 106.347 216.237 104.113 212.08C100.89 206.698 99.1066 194.993 98.7593 176.959C98.9006 171.608 99.4834 167.884 100.511 165.783C101.352 163.979 102.806 163.136 104.875 163.254C107.097 163.338 109.205 164.209 111.203 165.87C112.204 166.67 113.184 167.569 114.143 168.574L122.393 177.722C129.46 184.364 134.716 188.895 138.166 191.312C146.094 196.916 151.981 200.385 155.822 201.716C160.192 203.565 165.973 205.242 173.169 206.748C175.276 207.388 190.631 210.26 219.235 215.363C221.29 215.823 222.296 216.231 222.255 216.589C221.069 218.524 218.367 219.604 214.153 219.831C214.35 220.018 210.553 219.772 202.768 219.087C182.958 219.429 159.139 219.174 131.311 218.319Z" fill="#C9D2D3"/>
<path d="M158.894 232.671C159.062 232.671 159.198 232.528 159.198 232.351C159.198 232.173 159.062 232.03 158.894 232.03C128.359 232.021 97.8381 232.012 79.5581 231.442C61.5311 230.882 55.4299 229.778 49.4876 228.667L48.8165 213.49C69.7396 214.106 90.6332 214.722 100.561 214.856C101.502 214.868 102.365 214.877 103.118 214.877C103.204 214.877 103.268 214.874 103.351 214.874C104.025 216.159 105.111 217.251 106.847 217.964C109.037 218.86 112.23 219.146 115.974 219.146C117.175 219.146 118.437 219.115 119.744 219.068C122.193 218.975 124.789 218.816 127.476 218.652C130.331 218.477 133.265 218.297 136.188 218.185C138.887 218.082 141.565 218.045 144.158 218.023C146.359 218.437 149.17 218.608 152.634 218.608C154.742 218.608 157.087 218.549 159.686 218.443C162.35 218.337 165.24 218.185 168.283 218.023C172.536 217.799 177.013 217.575 181.371 217.435C185.963 218.801 192.979 219.246 201.15 219.246C208.849 219.246 217.611 218.854 226.37 218.459L226.711 218.443C226.879 218.437 227.008 218.287 227 218.11C226.994 217.933 226.852 217.796 226.685 217.805L226.343 217.821C220.692 218.076 215.077 218.319 209.72 218.468C211.412 218.228 212.743 217.584 213.682 216.197C216.398 212.177 215.651 201.993 215.118 195.985C215.059 195.329 215 194.694 214.95 194.122C214.518 189.411 214.312 187.174 215.012 181.906C215.094 181.275 215.194 180.593 215.295 179.881C216.142 173.985 217.378 165.534 213.882 161.101C213.311 160.376 212.587 159.788 211.795 159.268C211.916 159.134 212.072 159.025 212.181 158.882C214.17 156.297 214.191 152.373 212.139 150.612C210.998 149.632 209.27 149.386 207.145 149.386C206.942 149.386 206.742 149.389 206.53 149.393C205.506 149.411 204.384 149.477 203.166 149.548C201.724 149.632 200.149 149.722 198.457 149.754H198.454C197.865 149.766 197.265 149.769 196.652 149.769C195.443 149.769 194.171 149.75 192.932 149.732C191.702 149.713 190.498 149.698 189.33 149.698C185.724 149.698 182.484 149.856 181.183 150.821C180.798 151.107 180.568 151.465 180.468 151.885C180.235 152.846 180.712 154.066 181.165 155.264C181.566 156.322 181.948 157.429 182.078 158.534C181.268 158.761 180.715 158.985 180.541 159.19C180.486 159.256 180.424 159.361 180.418 159.495C180.412 159.673 180.509 159.794 180.586 159.862L180.783 159.62L180.586 159.862C180.798 160.055 181.345 160.186 182.025 160.292C182.022 160.301 182.025 160.313 182.022 160.323C181.645 161.879 180.365 163.431 178.834 165.273C176.889 167.613 174.602 170.354 173.737 173.972C173.463 175.117 173.334 176.346 173.301 177.628C173.231 180.472 173.643 183.633 174.064 186.875C174.517 190.375 174.985 193.978 174.899 197.451C174.855 199.283 174.655 201.082 174.461 202.821C173.799 208.782 173.178 214.168 179.676 216.85C179.679 216.85 179.682 216.853 179.682 216.853C175.847 216.996 171.962 217.192 168.254 217.388C165.213 217.547 162.317 217.699 159.666 217.808C157.773 217.886 156.066 217.927 154.441 217.948C158.579 217.871 161.97 217.662 163.951 217.03C166.105 216.343 166.711 215.126 166.682 213.107C166.667 212.189 166.526 211.091 166.358 209.8C166.102 207.83 165.784 205.369 165.737 202.267C165.673 198.101 166.099 192.774 166.532 187.354C167.082 180.447 167.65 173.381 167.203 168.478C167.2 168.428 167.197 168.415 167.191 168.366C166.714 163.356 165.178 160.618 163.892 158.325C162.947 156.642 162.164 155.242 161.988 153.356C161.849 151.9 162.067 150.142 162.303 148.263C162.682 145.223 163.097 141.829 161.855 139.253C163.589 137.181 162.909 133.279 160.863 131.356C159.295 129.884 156.937 129.551 154.435 129.424C153.809 129.393 153.179 129.374 152.534 129.352C151.887 129.334 151.201 129.312 150.548 129.278C149.962 129.247 149.37 129.206 148.788 129.166C147.725 129.091 146.671 129.019 145.694 129.019C143.658 129.019 141.8 129.334 140.767 130.777C140.037 131.798 139.758 133.35 139.684 135.158C138.383 135.531 137.609 136.008 137.45 136.639C137.191 137.669 138.525 138.478 139.746 138.923C139.778 139.561 139.811 140.202 139.849 140.861C139.905 141.792 139.958 142.734 139.999 143.677C140.22 148.889 139.943 153.935 138.401 156.431C138.001 157.075 137.515 157.554 137.015 157.918C136.956 157.958 136.903 157.98 136.844 158.017C138.177 155.385 138.024 150.394 135.735 149.06C135.269 148.789 134.734 148.683 134.157 148.683C134.072 148.683 133.983 148.686 133.895 148.689C132.768 148.745 131.402 149.159 129.889 149.614C127.823 150.236 125.425 150.955 122.77 151.088C122.449 151.104 122.119 151.113 121.79 151.113C119.15 151.113 116.327 150.628 113.837 150.198C111.927 149.869 110.197 149.57 108.934 149.57C108.366 149.57 107.863 149.629 107.468 149.794C106.909 150.027 106.603 150.454 106.473 150.989C106.259 151.891 106.556 153.123 106.824 154.281C107.109 155.506 107.359 156.67 107.218 157.588C106.42 157.828 105.744 158.381 105.258 159.467C105.096 159.828 104.958 160.267 104.834 160.743C103.533 162.009 102.053 163.727 101.326 166.944C99.9749 172.924 101.243 184.134 102.029 191.029V191.035L102.067 191.359C102.833 198.051 103.133 200.708 102.741 204.977C102.709 205.335 102.671 205.708 102.633 206.088C102.371 208.652 102.047 211.738 103.053 214.24C102.318 214.24 101.485 214.23 100.569 214.218C90.592 214.081 69.5689 213.462 48.534 212.843H48.5104C48.4251 212.839 48.3456 212.874 48.2868 212.939C48.2279 213.001 48.1955 213.088 48.2014 213.179L48.8989 228.956C48.9048 229.106 49.0078 229.23 49.1491 229.255C55.1974 230.384 61.2485 231.517 79.5433 232.086C97.8293 232.653 128.365 232.662 158.894 232.671ZM201.15 218.608C194.177 218.608 188.111 218.284 183.694 217.363C185.312 217.326 186.908 217.301 188.45 217.301C190.622 217.301 192.7 217.345 194.622 217.451C197.379 217.6 199.819 217.871 201.985 218.11C203.725 218.303 205.282 218.474 206.665 218.546C204.782 218.583 202.933 218.608 201.15 218.608ZM181.728 155.024C181.239 153.736 180.883 152.75 181.057 152.04C181.121 151.776 181.263 151.543 181.533 151.343C182.64 150.525 185.627 150.335 189.333 150.335C190.495 150.335 191.696 150.354 192.926 150.37C194.163 150.388 195.437 150.407 196.655 150.407C197.276 150.407 197.871 150.404 198.468 150.391C200.172 150.357 201.762 150.267 203.201 150.183C204.417 150.114 205.532 150.049 206.542 150.03C206.753 150.027 206.945 150.024 207.145 150.024C209.27 150.024 210.797 150.279 211.757 151.107C213.467 152.576 213.564 156.07 211.71 158.478C211.586 158.64 211.415 158.764 211.274 158.913C208.166 157.137 203.798 156.639 199.519 156.639C197.288 156.639 195.06 156.773 193.018 156.944C188.57 157.311 184.897 157.843 182.696 158.375C182.546 157.174 182.107 156.026 181.728 155.024ZM210.809 159.377C210.736 159.439 210.683 159.52 210.603 159.582C208.534 161.163 205.105 161.592 201.882 161.592C200.564 161.592 199.29 161.521 198.186 161.434C196.099 161.269 194.604 161.045 193.109 160.824C191.896 160.643 190.675 160.463 189.139 160.31C188.273 160.226 187.305 160.152 186.348 160.077C185.395 160.002 184.468 159.931 183.632 159.85C183.299 159.819 183.005 159.785 182.728 159.75C182.752 159.501 182.758 159.256 182.749 159.007C184.765 158.528 188.376 157.968 193.068 157.579C195.104 157.411 197.315 157.277 199.522 157.277C203.746 157.274 207.875 157.772 210.809 159.377ZM181.224 159.483C181.419 159.383 181.701 159.274 182.14 159.156C182.143 159.324 182.104 159.492 182.09 159.66C181.713 159.598 181.413 159.539 181.224 159.483ZM179.894 216.256C173.875 213.773 174.39 208.941 175.058 202.899C175.25 201.163 175.453 199.336 175.5 197.469C175.588 193.935 175.111 190.279 174.661 186.788C174.237 183.534 173.837 180.425 173.905 177.647C173.937 176.396 174.064 175.22 174.323 174.131C175.147 170.687 177.328 168.055 179.288 165.696C180.78 163.901 182.187 162.221 182.608 160.481C182.616 160.447 182.616 160.413 182.625 160.379C182.931 160.416 183.249 160.45 183.579 160.481C184.421 160.565 185.354 160.637 186.307 160.709C187.264 160.783 188.226 160.858 189.086 160.942C190.607 161.091 191.814 161.272 193.029 161.452C194.525 161.676 196.037 161.9 198.145 162.068C199.26 162.155 200.549 162.23 201.885 162.23C205.108 162.23 208.717 161.813 210.959 160.099C211.106 159.987 211.209 159.837 211.345 159.713C212.142 160.217 212.858 160.796 213.417 161.505C216.698 165.665 215.562 173.751 214.697 179.781C214.594 180.494 214.497 181.175 214.412 181.813C213.702 187.152 213.914 189.448 214.347 194.178C214.4 194.762 214.456 195.372 214.515 196.041C215.059 202.18 215.739 212.043 213.19 215.82C212.11 217.419 210.412 217.939 207.881 217.939C206.253 217.939 204.325 217.724 202.047 217.472C199.881 217.233 197.427 216.959 194.651 216.81C192.717 216.704 190.625 216.66 188.447 216.66C186.201 216.66 183.841 216.716 181.454 216.794C180.901 216.629 180.371 216.452 179.894 216.256ZM136.167 217.547C133.242 217.656 130.29 217.839 127.444 218.014C124.751 218.179 122.169 218.337 119.727 218.431C118.423 218.48 117.169 218.508 115.977 218.508C112.236 218.508 109.146 218.219 107.068 217.37C105.632 216.782 104.678 215.91 104.051 214.871C105.611 214.853 106.768 214.781 107.565 214.597C109.526 214.143 109.528 212.958 109.125 211.007C109.06 210.696 108.984 210.357 108.902 209.993C108.804 209.56 108.698 209.09 108.593 208.577C107.421 202.92 106.141 191.928 105.367 181.941C104.678 173.055 104.401 165.099 105.373 161.101C105.517 160.961 105.661 160.824 105.799 160.693C106.641 159.9 107.421 159.153 107.727 158.132C107.892 158.108 108.057 158.076 108.236 158.076C108.557 158.076 108.902 158.114 109.269 158.179C109.926 158.297 110.635 158.5 111.406 158.717C112.257 158.96 113.169 159.221 114.114 159.389C115.318 159.604 116.563 159.673 117.825 159.673C118.888 159.673 119.971 159.626 121.051 159.576C122.14 159.529 123.232 159.48 124.309 159.48C124.968 159.48 125.622 159.498 126.266 159.545C127.293 159.62 128.294 159.763 129.277 159.906C130.499 160.083 131.682 160.254 132.738 160.254C133.309 160.254 133.845 160.186 134.351 160.055C134.519 160.189 134.754 160.326 135.013 160.463C136.214 161.107 138.513 162.345 139.799 165.323C141.518 169.296 141.465 176.396 141.068 183.835C140.67 191.244 139.937 198.873 139.072 204.585C138.972 205.245 138.872 205.873 138.772 206.483C138.033 211.069 137.442 214.517 140.017 216.467C140.505 216.838 141.118 217.146 141.83 217.407C139.958 217.435 138.066 217.475 136.167 217.547ZM134.169 159.9C134.169 159.897 134.169 159.897 134.169 159.9C134.169 159.897 134.169 159.897 134.169 159.9ZM140.311 138.201C140.273 137.296 140.258 136.446 140.276 135.65C140.314 135.64 140.346 135.631 140.385 135.622C142.104 135.223 144.841 134.928 147.793 134.928C152.505 134.928 157.62 135.678 160.042 137.812C160.475 138.195 160.799 138.64 161.078 139.106C160.966 139.206 160.869 139.321 160.737 139.405C159.963 139.894 158.836 140.083 157.485 140.083C155.789 140.083 153.814 139.785 151.916 139.498C150.957 139.352 150.027 139.212 149.155 139.116C147.404 138.92 145.953 138.904 144.676 138.889C143.663 138.879 142.778 138.867 141.939 138.774C141.444 138.718 140.965 138.634 140.497 138.5C140.432 138.481 140.388 138.456 140.326 138.437C140.323 138.363 140.317 138.279 140.311 138.201ZM141.247 131.166C142.086 129.993 143.652 129.66 145.691 129.66C146.645 129.66 147.675 129.732 148.743 129.807C149.326 129.847 149.918 129.887 150.512 129.919C151.169 129.953 151.866 129.975 152.511 129.993C153.161 130.012 153.776 130.031 154.4 130.062C156.917 130.189 159.065 130.528 160.454 131.832C162.27 133.537 162.794 136.854 161.514 138.637C161.217 138.164 160.875 137.716 160.428 137.321C157.82 135.021 152.49 134.287 147.793 134.287C144.832 134.287 142.068 134.579 140.294 134.987C140.376 133.341 140.641 132.013 141.247 131.166ZM138.033 136.804C138.095 136.555 138.492 136.172 139.664 135.815C139.652 136.583 139.67 137.389 139.705 138.217C138.604 137.772 137.939 137.187 138.033 136.804ZM137.359 158.444C137.912 158.042 138.46 157.507 138.907 156.779C140.573 154.085 140.82 148.823 140.603 143.649C140.561 142.7 140.505 141.751 140.452 140.821C140.417 140.239 140.391 139.682 140.361 139.122C140.862 139.259 141.362 139.352 141.874 139.408C142.745 139.508 143.666 139.517 144.67 139.526C145.947 139.539 147.372 139.554 149.094 139.747C149.953 139.844 150.868 139.984 151.831 140.13C153.72 140.416 155.736 140.721 157.485 140.721C158.862 140.721 160.125 140.535 161.046 139.953C161.175 139.872 161.267 139.757 161.381 139.66C162.438 141.984 162.082 145.086 161.696 148.173C161.464 150.03 161.234 151.869 161.381 153.412C161.576 155.46 162.429 156.975 163.368 158.646C164.639 160.911 166.123 163.552 166.585 168.422C166.588 168.462 166.591 168.49 166.594 168.531C167.035 173.359 166.476 180.357 165.923 187.292C165.49 192.7 165.063 198.064 165.125 202.267C165.172 205.413 165.496 207.908 165.752 209.877C165.923 211.181 166.058 212.236 166.07 213.11C166.096 214.874 165.637 215.814 163.768 216.411C160.952 217.307 155.133 217.332 148.108 217.36C146.842 217.363 145.529 217.373 144.199 217.382C142.501 217.058 141.209 216.595 140.352 215.945C138.151 214.277 138.584 211.352 139.352 206.586C139.449 205.982 139.552 205.341 139.652 204.681C140.523 198.944 141.256 191.29 141.656 183.87C142.054 176.477 142.13 169.2 140.335 165.052C138.954 161.863 136.488 160.541 135.272 159.89C135.184 159.844 135.143 159.819 135.075 159.781C135.361 159.648 135.626 159.47 135.873 159.256C136.335 159.066 136.835 158.826 137.359 158.444ZM107.415 154.128C107.13 152.902 106.894 151.857 107.062 151.147C107.147 150.796 107.33 150.541 107.692 150.391C107.98 150.27 108.395 150.211 108.937 150.211C110.141 150.211 111.812 150.497 113.743 150.83C116.224 151.256 119.094 151.754 121.793 151.754C122.131 151.754 122.47 151.745 122.802 151.729C125.536 151.592 127.997 150.852 130.057 150.23C131.593 149.766 132.883 149.383 133.924 149.33C134.004 149.327 134.083 149.324 134.157 149.324C134.669 149.324 135.093 149.417 135.443 149.62C137.289 150.693 137.606 155.242 136.291 157.768C136.147 158.048 135.982 158.294 135.805 158.5C135.737 158.577 135.655 158.627 135.584 158.696C135.387 158.78 135.178 158.87 135.01 158.935C134.743 159.038 134.472 159.137 134.313 159.253C134.292 159.268 134.272 159.284 134.251 159.302C134.213 159.337 134.195 159.396 134.169 159.445C133.733 159.554 133.262 159.617 132.732 159.617C131.726 159.617 130.584 159.452 129.354 159.274C128.377 159.134 127.352 158.985 126.305 158.91C125.645 158.864 124.971 158.845 124.306 158.845C123.211 158.845 122.111 158.895 121.022 158.941C119.944 158.988 118.87 159.038 117.822 159.038C116.58 159.038 115.371 158.972 114.214 158.764C113.302 158.599 112.419 158.347 111.562 158.104C110.8 157.887 110.061 157.675 109.37 157.551C108.981 157.482 108.598 157.439 108.233 157.439C108.095 157.439 107.972 157.47 107.839 157.485C107.936 156.437 107.668 155.223 107.415 154.128ZM106.983 158.372C106.727 158.876 106.3 159.34 105.764 159.856C105.779 159.819 105.791 159.775 105.808 159.741C106.123 159.038 106.521 158.621 106.983 158.372ZM102.671 191.284L102.633 190.96V190.954C101.838 184 100.596 172.933 101.914 167.093C102.482 164.579 103.527 163.048 104.584 161.897C103.819 166.29 104.125 173.848 104.758 181.99C105.535 191.984 106.815 203.011 107.995 208.714C108.104 209.233 108.21 209.709 108.307 210.142C108.389 210.506 108.463 210.839 108.528 211.144C108.922 213.045 108.84 213.645 107.43 213.972C106.647 214.152 105.44 214.221 103.713 214.233C102.662 211.906 102.95 208.901 103.23 206.156C103.268 205.78 103.307 205.4 103.342 205.039C103.745 200.69 103.433 197.967 102.671 191.284Z" fill="black"/>
</svg>
