<svg width="296" height="296" viewBox="0 0 296 296" fill="none" xmlns="http://www.w3.org/2000/svg">
<path d="M247.443 106.262L247.804 105.853C250.017 103.608 251.423 99.9169 252.025 94.7804C252.803 88.1127 252.301 84.0596 250.522 82.6193C250.384 82.3891 249.756 82.1196 248.639 81.809L244.179 81.4324C243.695 81.3539 243.233 81.2201 242.794 81.0345C242.357 80.8453 241.925 80.615 241.5 80.3402L237.045 77.324C235.389 76.4548 234.304 75.9569 233.79 75.8302C230.963 74.9271 228.366 74.4042 226.001 74.2614C218.397 73.5796 212.78 75.2609 209.152 79.3086C205.72 83.6651 205.193 88.6838 207.574 94.3664C209.15 98.0394 211.492 101.707 214.599 105.366C218.143 109.458 221.042 112.198 223.294 113.586C226.946 116.11 230.392 116.865 233.631 115.855C236.847 115.076 241.452 111.878 247.443 106.262Z" fill="black"/>
<path d="M238.275 61.0955L238.286 61.0508C238.495 60.2138 238.753 59.5071 239.062 58.9306C239.274 58.5219 239.548 58.2203 239.878 58.0257C241.211 57.1798 242.682 56.8728 244.293 57.1048C244.937 57.219 245.5 57.4671 245.98 57.8491L246.544 58.4487L246.947 59.168L247.202 59.9836L247.32 60.8724L247.309 61.8111L247.183 62.7749C246.922 64.1099 246.438 65.3271 245.733 66.43L245.191 67.176L244.597 67.8078C244.554 67.8471 244.509 67.8846 244.464 67.9167C244.181 68.1451 243.815 68.2058 243.37 68.097L242.972 67.9363C242.703 67.7936 242.433 67.6026 242.164 67.3581C241.618 66.853 241.107 66.2605 240.631 65.5769C240.195 64.9701 239.76 64.2741 239.326 63.4906C238.982 62.8035 238.632 62.0057 238.275 61.0955Z" fill="black"/>
<path d="M236.149 72.3178L236.053 72.1107C235.685 71.3576 235.471 70.6919 235.409 70.1154C235.378 69.6942 235.373 69.4354 235.391 69.3373L235.496 67.963C235.482 67.5329 235.453 67.2848 235.411 67.2224C235.366 67.0724 235.296 66.935 235.202 66.8137C235.054 66.6316 234.856 66.496 234.609 66.4032C234.056 66.2122 233.458 66.1587 232.814 66.2461C232.046 66.3675 231.454 66.5638 231.038 66.8369C230.818 66.9689 230.619 67.1188 230.438 67.2866C230.258 67.4544 230.103 67.6346 229.971 67.8274L229.796 68.1219C229.692 68.3218 229.621 68.527 229.58 68.734L229.546 69.0428C229.541 69.2498 229.573 69.4515 229.644 69.6478L229.783 69.9334L229.989 70.2029L230.262 70.4527L230.597 70.6829C230.842 70.8311 231.12 70.9667 231.434 71.0934C231.559 71.1666 232.087 71.3379 233.017 71.6092C233.581 71.7698 234.625 72.0054 236.149 72.3178Z" fill="black"/>
<path d="M117.287 83.2118L117.181 83.276C113.039 85.7943 111.238 88.2965 111.781 90.7862C112.079 96.9363 114.37 102.166 118.657 106.476C126.01 112.583 131.682 116.543 135.671 118.357C138.88 119.66 140.849 120.311 141.579 120.313C142.469 120.566 145.869 120.796 151.776 120.998C152.91 121.1 153.966 121.291 154.946 121.569C156.954 122.074 158.359 123.236 159.158 125.053C159.754 126.636 160.179 128.265 160.434 129.943C164.073 154.03 165.995 167.908 166.201 171.574C166.579 171.945 166.081 176.057 164.707 183.912L164.842 187.067C165.555 189.214 166.445 190.438 167.516 190.736C170.782 192.171 173.309 192.232 175.101 190.922C175.69 191.115 177.266 188.441 179.831 182.901C180.878 181.515 181.592 180.81 181.974 180.786C182.577 180.458 183.434 180.289 184.546 180.276L190.512 180.749L194.694 179.874L209.512 174.933L219.236 172.341C222.211 171.172 224.067 170.039 224.804 168.939C225.946 168.002 226.571 166.129 226.682 163.319C226.726 162.025 225.927 158.265 224.283 152.034C223.922 150.045 223.901 147.219 224.217 143.559L225.689 130.48C226.489 128.119 227.488 126.97 228.693 127.03C229.592 127.005 230.146 127.171 230.355 127.528C231.01 128.267 231.409 129.392 231.556 130.9C231.738 131.755 231.732 133.912 231.538 137.377C229.794 148.765 229.103 154.431 229.464 154.376C229.291 156.971 230.06 159.743 231.772 162.689C233.421 163.973 235.295 164.231 237.395 163.467C238.202 163.062 238.861 162.63 239.367 162.175L245.045 156.805C246.558 156.006 247.518 155.668 247.929 155.791C249.774 155.807 251.28 156.093 252.449 156.652L261.346 161.129C263.434 161.718 264.927 161.743 265.821 161.206C266.338 161.169 266.92 160.078 267.564 157.931L267.986 155.424C268.141 152.004 267.429 148.508 265.853 144.938C256.604 127.425 249.871 116.438 245.651 111.978C244.57 111.437 243.736 111.418 243.147 111.921C242.924 111.778 242.086 113.158 240.627 116.062C239.926 116.965 239.453 117.411 239.209 117.402C230.388 120.836 224.36 123.725 221.126 126.072C220.042 126.831 219.013 127.66 218.036 128.564L211.113 135.702C208.659 138.037 207.16 139.333 206.619 139.591C202.979 141.815 200.225 142.542 198.354 141.772C194.817 140.851 191.18 138.583 187.446 134.967C180.536 128.908 176.552 124.219 175.497 120.9C174.512 118.214 174.307 115.312 174.883 112.192L179.848 94.104C179.866 92.5227 179.313 91.384 178.187 90.6898C176.943 89.8117 175.488 89.2959 173.825 89.1442L166.165 88.7891C151.684 86.2101 141.325 84.5842 135.087 83.9114C126.162 82.8727 120.23 82.6407 117.287 83.2118Z" fill="#EBC6C6"/>
<path d="M14.1809 206.501L13.8597 206.606C3.34942 210.345 5.23767 218.53 19.5244 231.16C25.3337 236.429 38.1552 243.987 57.9871 253.834C64.0016 256.934 68.6169 258.403 71.8348 258.242C74.6047 258.313 77.1836 257.423 79.5698 255.572C81.508 254.423 83.0625 251.094 84.2333 245.59C85.8092 233.422 87.1032 207.302 88.1169 167.228C88.3364 164.006 88.9254 162.463 89.8838 162.591C91.9915 163.21 93.3747 165.045 94.0297 168.095L98.3059 201.727C99.9907 209.248 101.959 214.264 104.21 216.779C105.05 217.884 106.025 218.173 107.131 217.646C107.867 217.315 108.645 216.754 109.466 215.965C113.792 211.111 116.471 208.289 117.504 207.502C119.391 205.812 121.233 205.26 123.032 205.844C124.063 206.312 124.765 207.104 125.136 208.221C125.946 217.475 127.336 223.186 129.308 225.355C130.624 227.95 133.895 230.015 139.123 231.55C142.094 232.42 146.554 232.751 152.506 232.538C172.681 231.619 188.808 230.429 200.885 228.967C234.964 225.199 262.469 220.78 283.4 215.71C290.741 212.772 288.456 210.79 276.549 209.76C256.627 208.23 222.966 206.617 175.563 204.923C84.435 202.051 30.6415 202.578 14.1809 206.501Z" fill="#30525B"/>
<path d="M187.876 188.563L187.762 188.732C185.606 191.356 184.61 195.484 184.778 201.118C185.06 205.052 186.272 208.743 188.417 212.189C189.838 214.397 191.617 215.956 193.753 216.87C197.128 217.845 201.902 218.136 208.076 217.743L218.086 216.963L225.202 216.64C227.911 216.258 229.696 215.698 230.556 214.957C231.929 214.095 232.651 212.929 232.719 211.459C233.01 211.25 232.507 208.405 231.211 202.924C231.043 202.332 231.109 201.313 231.413 199.865C232.261 198.093 233.767 196.794 235.932 195.967C236.191 195.644 238.853 194.95 243.917 193.881C245.857 193.467 251.771 192.662 261.662 191.468C266.556 190.663 269.469 190.092 270.404 189.751C278.61 187.494 282.801 186.258 282.981 186.044C285.139 185.259 286.779 184.138 287.9 182.684C288.442 182.2 288.745 181.079 288.811 179.323C288.899 179.03 288.517 178.359 287.666 177.313C285.929 175.689 283.386 174.856 280.04 174.815C279.022 174.786 277.611 175.216 275.81 176.107C275.108 176.319 270.55 178.614 262.132 182.992L258.157 184.775C254.104 186.362 249.938 187.538 245.662 188.3C242.789 188.764 239.962 188.766 237.185 188.307C235.612 188.079 234.047 187.79 232.487 187.44C224.717 185.473 220.051 184.376 218.491 184.147C214.602 183.574 212.223 183.344 211.358 183.46C205.698 183.483 200.576 183.958 195.991 184.886C194.171 185.304 191.465 186.53 187.876 188.563Z" fill="#C9D2D3"/>
<path d="M150.718 199.141L150.779 199.228C152.451 201.586 153.759 203.26 154.698 204.252C154.586 204.236 156.133 205.662 159.336 208.53C159.949 209.076 160.575 209.596 161.214 210.086C161.853 210.577 162.508 211.013 163.179 211.395L164.2 211.907C164.889 212.214 165.599 212.426 166.327 212.546L167.662 212.63C167.973 212.667 168.387 212.544 168.906 212.257C169.033 212.219 169.333 211.943 169.806 211.429C170.603 210.388 171.33 208.989 171.981 207.233C172.558 205.705 172.938 204.131 173.124 202.514C173.202 201.727 173.193 200.991 173.095 200.308L172.861 199.355L172.452 198.545L171.851 197.907L171.037 197.476C170.86 197.399 170.311 197.242 169.388 197.004C167.562 196.592 165.617 196.415 163.552 196.474C161.601 196.494 158.897 196.787 155.437 197.351C154.014 197.725 152.44 198.323 150.718 199.141Z" fill="#C9D2D3"/>
<path d="M285.939 177.948C285.881 177.48 285.794 177.033 285.714 176.622C285.644 176.265 285.582 175.94 285.546 175.647C285.517 175.411 285.507 175.195 285.498 174.998C285.467 174.374 285.453 173.768 284.602 173.768C283.864 173.768 282.409 174.224 279.512 175.236C274.595 176.953 265.421 180.318 257.928 183.092C260.644 181.859 262.976 180.399 264.441 178.626C267.222 175.261 266.876 170.827 264.832 166.465C264.768 166.327 264.697 166.187 264.627 166.05C264.664 165.937 264.691 165.816 264.702 165.68C264.705 165.642 264.707 165.605 264.707 165.567C264.727 164.854 264.391 163.845 264.027 162.735C263.513 161.173 262.915 159.352 262.963 157.615C262.986 156.764 263.165 155.93 263.365 154.993C263.886 152.563 264.523 149.573 262.801 144.324C261.848 141.416 260.17 137.819 258.267 134.086C256.757 131.125 255.104 128.076 253.551 125.211C252.173 122.668 250.88 120.286 249.831 118.227C248.658 115.927 247.798 114.047 247.121 112.573C246.532 111.286 246.071 110.265 245.647 109.554C249.315 103.898 251.469 96.7621 251.693 90.1909C251.914 83.718 250.275 77.7419 245.568 74.87C245.655 74.5698 245.713 74.2463 245.702 73.8764C245.663 72.4771 244.85 70.5542 243.592 68.6438C245.459 67.802 247.126 66.2455 247.865 64.403C249.093 61.3452 247.776 57.5262 245.19 56.3717C244.631 56.1215 244.019 56 243.381 56C241.057 56 238.412 57.6281 236.823 60.7251C236.605 61.1504 236.411 61.6079 236.234 62.0833C235.661 61.8617 235.09 61.6991 234.526 61.6347C234.31 61.6097 234.096 61.599 233.883 61.599C232.161 61.599 230.567 62.3728 229.324 63.4772C227.769 64.8605 226.704 66.8406 226.686 68.5312C226.329 68.8439 225.981 69.1352 225.649 69.3711C224.496 70.1842 223.485 70.3951 222.166 70.6686C221.279 70.8526 220.258 71.0635 218.985 71.5085C215.829 72.6129 211.104 75.1613 208.382 79.2145C205.66 83.2694 204.955 88.8112 206.026 92.8876C206.681 95.3806 207.998 97.3196 209.169 99.0442C209.921 100.15 210.606 101.162 211.04 102.184C211.472 103.203 211.656 104.241 211.843 105.299C211.977 106.051 212.115 106.816 212.345 107.576C210.895 106.947 209.601 106.223 208.639 105.279C206.893 103.569 206.206 101.135 205.624 99.0567C205.148 97.3536 204.725 95.7881 203.72 95.2823C203.45 95.1465 203.15 95.0911 202.834 95.0911C201.901 95.0911 200.755 95.5808 199.682 96.1044C199.93 95.6594 200.178 95.2109 200.423 94.7784C200.828 94.0617 201.235 93.3398 201.62 92.6338C202.543 90.945 203.38 89.2705 203.991 87.537C205.035 84.5687 205.54 81.0034 204.578 80.6656C204.544 80.6549 204.509 80.646 204.473 80.6424C204.453 80.6406 204.434 80.6388 204.416 80.6388C203.427 80.6388 201.41 83.9807 199.362 87.8962C197.324 91.7939 194.832 97.0337 196.101 97.7539C196.217 97.82 196.351 97.8451 196.488 97.8451C197.031 97.8451 197.872 97.4394 198.759 96.9908C196.981 100.259 195.305 103.852 194.857 108.857C194.405 113.904 195.203 120.423 196.993 123.37C198.416 125.713 200.458 125.801 202.117 125.801C202.193 125.801 202.256 125.801 202.331 125.801C202.424 125.801 202.445 125.801 202.536 125.801C202.856 125.801 203.15 125.804 203.425 125.828C203.459 125.831 203.502 125.835 203.536 125.838C204.459 125.935 205.135 126.256 205.765 126.555C206.272 126.794 206.767 127.032 207.318 127.089C207.416 127.1 207.515 127.104 207.614 127.104H207.616C208.15 127.104 208.727 126.968 209.328 126.828C210.064 126.657 210.851 126.474 211.722 126.474H211.725C212.436 126.474 213.203 126.596 214.001 126.721C214.81 126.85 215.647 126.982 216.445 126.982C216.768 126.982 217.086 126.961 217.397 126.907C218.071 126.793 218.691 126.533 219.098 126.36C218.967 126.51 218.796 126.701 218.55 126.971C216.695 128.989 211.604 134.322 207.083 136.398C204.571 137.551 202.229 137.703 200.264 137.828C198.725 137.926 197.368 138.008 196.392 138.596C196.326 138.636 196.262 138.677 196.199 138.721C195.646 139.111 195.232 139.667 194.898 140.274C194.453 139.969 193.975 139.806 193.498 139.76C192.392 138.223 190.976 136.652 189.462 134.985C186.098 131.273 182.279 127.059 180.371 121.576C177.347 112.892 179.102 100.99 181.358 94.7283C182.322 92.0548 183.375 90.4161 184.031 89.3956C184.393 88.8327 184.682 88.3931 184.702 88.0785C184.737 87.5156 184.057 87.4334 183.188 87.3798C182.142 87.3136 180.41 87.3011 178.247 87.2833C174.093 87.2493 168.315 87.2028 162.571 86.7579C153.829 86.0823 145.183 84.49 140.131 82.6976C137.941 81.9202 136.425 81.1052 135.22 80.4565C133.885 79.7381 132.893 79.1984 131.788 79.1984C131.606 79.1984 131.42 79.2127 131.231 79.2431C131.093 79.2645 130.954 79.2949 130.813 79.3324C129.714 79.6255 128.471 80.369 127.229 81.1106C125.897 81.9059 124.557 82.7047 123.318 83.0353C122.771 83.1801 122.241 83.2355 121.731 83.2355C120.924 83.2355 120.169 83.1014 119.455 82.9746C118.866 82.8691 118.302 82.7708 117.781 82.7655C117.397 82.5224 116.754 82.4063 116.001 82.3223C115.385 82.2544 114.65 82.2043 113.82 82.1471C112.729 82.0721 111.478 81.9881 110.108 81.8362C109.328 81.7504 108.52 81.6432 107.681 81.5324C105.539 81.25 103.249 80.948 101.114 80.948C99.5231 80.948 98.0058 81.116 96.6867 81.5895C92.9167 82.946 90.8443 86.7882 90.7479 88.6075C90.73 88.9399 90.7782 89.2151 90.8871 89.4671C91.0513 89.8478 91.3512 90.1623 91.7082 90.5412C92.4276 91.306 93.5093 92.4516 94.6964 95.2001C95.4907 97.0426 96.3333 99.6018 97.2865 102.499C98.9305 107.499 100.899 113.488 103.509 118.418C104.619 120.518 105.846 122.425 107.11 124.178C108.97 126.762 110.908 129.016 112.674 131.067C114.157 132.792 115.514 134.368 116.604 135.884C118.361 138.325 119.43 140.609 120.378 142.637C121.19 144.376 121.922 145.941 122.927 147.237C124.108 148.76 125.663 149.903 127.011 150.897C128.159 151.742 129.137 152.466 129.665 153.224C129.676 153.238 129.687 153.254 129.696 153.269C130.34 154.225 130.29 155.25 130.244 156.142C130.213 156.727 130.172 157.322 130.44 157.72C130.629 158.001 130.947 158.158 131.299 158.256C131.75 158.383 132.316 158.428 132.877 158.474C133.492 158.524 134.105 158.574 134.622 158.719C135.122 158.859 135.54 159.091 135.854 159.266C136.045 159.371 136.25 159.491 136.397 159.506C136.407 159.507 136.418 159.507 136.429 159.507C136.456 159.507 136.486 159.504 136.518 159.493C136.613 159.729 136.697 159.94 136.795 160.183C137.755 162.583 138.478 164.411 139.583 165.319C140.21 165.834 140.949 166.048 141.602 166.241C142.268 166.438 142.826 166.606 143.207 166.992C143.258 167.045 143.308 167.102 143.357 167.165C143.403 167.228 143.44 167.315 143.483 167.387C143.864 168.482 144.331 169.554 144.94 170.562C144.986 170.639 145.04 170.711 145.088 170.786C145.349 171.245 145.645 171.722 146.036 172.24C146.613 173.004 147.352 173.827 148.119 174.683C149.954 176.728 151.95 178.956 152.517 181.153C153.192 183.762 151.852 186.369 150.754 188.246C150.65 188.421 150.536 188.616 150.44 188.775C150.347 188.93 150.263 189.071 150.181 189.213C149.583 190.233 149.274 190.891 149.274 191.277C149.274 191.648 149.538 191.781 149.845 191.781C149.872 191.781 149.902 191.779 149.931 191.777C150.099 191.766 150.295 191.729 150.495 191.691C150.79 191.636 151.102 191.577 151.389 191.577C151.796 191.577 152.102 191.691 152.257 192.05C152.655 192.973 152.159 195.485 151.529 196.936C151.439 197.142 151.35 197.317 151.264 197.481C150.704 197.607 150.217 197.739 149.847 197.88C149.053 198.18 148.564 198.593 148.762 199.122C149.169 200.2 152.757 201.068 156.486 201.124C156.628 201.125 156.746 201.127 156.889 201.127C161.985 201.127 167.646 199.699 169.204 198.911C169.463 198.781 169.668 198.64 169.738 198.472C169.773 198.386 169.775 198.289 169.731 198.202C169.718 198.178 169.704 198.157 169.688 198.137C169.454 197.853 168.583 197.787 167.69 197.787C167.667 197.787 167.642 197.789 167.619 197.789C167.647 197.355 167.194 197.07 166.632 196.94C166.011 196.795 165.091 196.772 164.172 196.749C163.642 196.734 163.126 196.718 162.651 196.686C163.686 196.649 164.686 196.627 165.598 196.627C166.569 196.627 167.44 196.65 168.162 196.697C170.955 196.879 171.348 197.417 171.382 198.323C171.392 198.611 171.364 198.942 171.33 199.333C171.287 199.839 171.235 200.434 171.26 201.115C171.294 202.008 171.462 203.048 171.633 204.113C172.056 206.742 172.48 209.464 171.262 210.947C170.004 212.481 166.926 212.758 163.585 212.758C163.165 212.758 162.767 212.754 162.346 212.747C161.926 212.742 161.546 212.733 161.134 212.725C160.75 212.718 160.345 212.709 159.972 212.704C159.431 212.697 158.883 212.692 158.374 212.688C154.763 212.661 152.109 212.627 150.814 211.373C149.336 209.939 149.581 206.848 149.858 203.586C149.861 203.533 149.843 203.481 149.808 203.441C149.772 203.402 149.722 203.381 149.668 203.381L14.1875 203.806C14.0839 203.806 13.9982 203.892 14 203.995C14 204.099 14.0857 204.185 14.1892 204.183L149.465 203.76C149.203 206.862 148.949 210.089 150.552 211.644C151.982 213.031 154.845 213.038 158.371 213.065C158.856 213.069 159.447 213.074 159.965 213.081C160.334 213.086 160.743 213.094 161.125 213.103C161.543 213.111 161.916 213.119 162.339 213.124C162.772 213.131 163.149 213.135 163.583 213.135C166.864 213.135 170.157 212.885 171.553 211.187C172.904 209.541 172.417 206.601 172.006 204.053C171.833 202.98 171.671 201.967 171.639 201.1C171.614 200.444 171.664 199.873 171.707 199.365C171.741 198.979 171.771 198.623 171.758 198.307C171.71 197.058 170.969 196.5 168.185 196.318C167.453 196.27 166.573 196.248 165.596 196.248C164.211 196.248 162.624 196.295 160.995 196.382C160.879 196.331 160.775 196.273 160.702 196.204C160.53 196.043 160.479 195.811 160.532 195.48C160.609 195.01 160.889 194.434 161.187 193.825C161.475 193.239 161.78 192.619 161.867 192.095C162 191.287 161.619 190.73 161.075 190.219C160.873 190.029 160.639 189.84 160.4 189.647C162.276 189.634 164.32 188.821 164.822 187.234C165.013 186.628 164.968 185.922 164.807 185.165C164.982 183.698 164.593 181.973 163.902 181.158C163.892 181.144 163.876 181.126 163.863 181.113C163.733 180.969 163.59 180.863 163.44 180.774C163.276 180.179 163.149 179.591 163.103 179.021C162.956 177.216 163.583 175.568 164.283 173.738C164.661 172.748 165.059 171.706 165.352 170.575C166.185 167.354 166.153 163.435 164.406 156.137C163.319 151.598 161.568 145.741 159.954 140.351C158.974 137.076 158.046 133.977 157.348 131.437C157 130.172 156.709 129.05 156.45 128.049C156.243 127.252 156.055 126.528 155.879 125.881C155.1 123.054 154.46 121.524 152.835 120.797C151.968 120.407 150.836 120.255 149.581 120.255C147.337 120.255 144.645 120.745 142.227 121.32C141.489 121.496 140.783 121.689 140.099 121.898C139.867 121.646 139.604 121.367 139.269 121.027C136.759 118.486 130.938 113.332 125.972 110.83C124.194 109.935 122.529 109.381 121.045 108.886C119.832 108.482 118.75 108.121 117.809 107.647C117.62 107.553 117.445 107.444 117.268 107.338C116.201 102.066 114.976 94.8963 115.544 90.4071C115.885 87.7193 116.87 85.9894 117.523 84.8474C117.9 84.1862 118.239 83.609 118.1 83.1694C118.496 83.1997 118.914 83.2623 119.383 83.3463C120.094 83.4732 120.881 83.6143 121.725 83.6143C122.265 83.6143 122.827 83.5572 123.409 83.4017C124.71 83.055 126.099 82.224 127.416 81.4376C128.675 80.6853 129.865 79.9758 130.904 79.7006C131.034 79.6666 131.161 79.638 131.284 79.6184C131.454 79.5916 131.62 79.5773 131.781 79.5773C132.771 79.5773 133.673 80.058 135.033 80.7889C136.241 81.4394 137.777 82.2651 139.997 83.0532C145.093 84.8617 153.774 86.4576 162.533 87.1331C168.29 87.5781 174.083 87.6246 178.235 87.6586C180.403 87.6764 182.121 87.6907 183.154 87.7551C184.252 87.823 184.321 87.9552 184.314 88.0535C184.302 88.2429 184.1 88.57 183.702 89.1901C183.042 90.2195 181.969 91.8868 180.991 94.5997C178.716 100.908 176.939 112.905 180.002 121.699C181.94 127.266 185.814 131.534 189.171 135.238C190.616 136.831 191.954 138.314 193.02 139.754C191.895 139.821 190.867 140.498 190.526 141.379C190.021 142.694 191.081 144.32 192.124 144.723C192.285 144.785 192.451 144.821 192.617 144.821C192.827 144.821 193.032 144.762 193.216 144.633C193.718 144.281 194.029 143.397 194.355 142.498C194.402 142.367 194.452 142.235 194.5 142.103C196.635 146.331 195.862 150.422 195.019 154.841C194.884 155.547 194.748 156.267 194.621 156.991C194.448 157.992 194.298 159.003 194.152 160.017C194.061 160.163 193.973 160.32 193.88 160.456C192.865 159.052 191.512 157.574 190.526 157.574C190.433 157.574 190.342 157.586 190.255 157.613C189.141 157.954 188.889 160.413 189.33 161.856C189.489 162.374 189.75 162.835 190.148 163.074C190.353 163.198 190.583 163.257 190.83 163.257C191.717 163.257 192.833 162.476 193.871 161.098C193.907 161.15 193.943 161.201 193.977 161.253C193.962 161.361 193.946 161.468 193.93 161.575C193.72 163.082 193.511 164.583 193.263 166.018C192.836 168.471 192.292 170.746 191.421 172.632C190.205 175.261 188.368 177.092 186.819 177.998C186.422 177.648 186.039 177.185 185.671 176.722C185.255 176.199 184.83 175.648 184.443 175.511C184.371 175.486 184.302 175.473 184.23 175.473C183.782 175.473 183.525 175.949 183.416 176.394C183.206 177.26 183.397 178.71 184.539 178.989C184.668 179.021 184.805 179.035 184.95 179.035C185.466 179.035 186.099 178.824 186.776 178.46C186.983 178.619 187.195 178.753 187.419 178.833C187.579 178.89 187.747 178.922 187.92 178.922C188.231 178.922 188.541 178.815 188.848 178.585C190.362 177.439 192.003 172.943 193.238 169.576C193.547 168.734 193.829 167.962 194.084 167.312C194.375 166.565 194.628 165.982 194.834 165.51C194.975 165.187 195.092 164.913 195.187 164.67C195.58 163.664 195.553 163.189 194.964 162.134C194.809 161.856 194.605 161.523 194.369 161.166C194.418 160.824 194.466 160.483 194.514 160.142C195.091 159.191 195.623 158.062 196.042 156.735C197.531 152.018 197.702 144.905 196.163 141.81C195.887 141.254 195.555 140.825 195.189 140.505C195.505 139.915 195.892 139.392 196.404 139.031C196.46 138.991 196.517 138.956 196.574 138.92C197.454 138.391 198.702 138.305 200.276 138.205C202.242 138.08 204.648 137.926 207.229 136.741C211.831 134.627 216.97 129.236 218.817 127.227C219.353 126.644 219.653 126.305 219.717 126.142C219.728 126.113 219.778 125.979 219.669 125.879C219.61 125.826 219.54 125.82 219.508 125.82C219.496 125.82 219.485 125.82 219.474 125.822C219.358 125.835 219.162 125.92 218.962 126.004C218.551 126.178 217.959 126.426 217.323 126.535C217.038 126.583 216.741 126.605 216.434 126.605C215.67 126.605 214.864 126.478 214.05 126.349C213.261 126.224 212.461 126.097 211.715 126.097H211.711C210.792 126.097 209.964 126.29 209.232 126.462C208.619 126.605 208.088 126.726 207.606 126.728H207.604C207.515 126.728 207.431 126.725 207.347 126.716C206.868 126.666 206.433 126.46 205.915 126.215C205.285 125.917 204.557 125.57 203.562 125.465C203.527 125.461 203.48 125.456 203.443 125.454C203.152 125.429 202.841 125.425 202.524 125.425C202.433 125.425 202.409 125.425 202.317 125.425C202.242 125.425 202.179 125.425 202.102 125.425C200.46 125.425 198.611 125.334 197.301 123.175C195.574 120.332 194.769 113.913 195.217 108.891C195.664 103.896 197.351 100.326 199.146 97.0391C199.211 96.9211 199.277 96.8085 199.341 96.6906C200.56 96.0758 201.842 95.47 202.82 95.47C203.093 95.47 203.332 95.5182 203.537 95.6201C204.355 96.0294 204.744 97.3643 205.248 99.1586C205.826 101.219 206.533 103.757 208.362 105.549C209.435 106.6 210.894 107.383 212.498 108.055C212.548 108.191 212.591 108.326 212.648 108.462C212.905 109.07 213.25 109.672 213.728 110.262C215.849 112.878 220.608 115.248 225.063 116.642C225.918 116.91 226.763 117.126 227.596 117.314C228.239 118.109 228.887 118.82 229.629 119.312C230.188 119.683 230.804 119.934 231.514 120.011C231.67 120.027 231.832 120.036 231.995 120.036C235.574 120.036 241.061 116.122 244.961 110.592C245.115 110.374 245.25 110.135 245.4 109.912C245.754 110.546 246.18 111.456 246.764 112.728C247.441 114.204 248.303 116.088 249.481 118.397C250.532 120.461 251.828 122.848 253.204 125.39C254.759 128.256 256.407 131.298 257.915 134.256C259.816 137.987 261.482 141.563 262.426 144.44C264.12 149.601 263.493 152.514 262.979 154.913C262.781 155.842 262.594 156.712 262.569 157.602C262.519 159.416 263.142 161.302 263.652 162.851C264.009 163.938 264.293 164.824 264.306 165.451C262.185 161.455 258.661 157.672 254.632 157.111C254.265 157.059 253.893 157.036 253.52 157.036C249.468 157.036 245.109 159.902 241.75 162.281C241.591 162.393 241.387 162.538 241.234 162.647C238.978 164.252 237.189 165.516 235.275 165.516C234.287 165.516 233.248 165.176 232.08 164.336C229.867 162.742 227.237 159.377 225.511 155.179C225.008 151.685 225.036 147.779 225.709 143.607C226.3 139.946 227.38 136.091 228.157 133.312C228.591 131.761 228.935 130.531 229.042 129.87C229.076 129.656 229.096 129.454 229.055 129.325L228.874 129.382L229.055 129.325C229.033 129.259 228.978 129.157 228.849 129.135C228.837 129.134 228.823 129.132 228.81 129.132C228.758 129.132 228.715 129.146 228.682 129.162C228.671 129.168 228.66 129.173 228.651 129.178C227.741 129.716 223.185 138.486 223.284 146.513C223.321 149.612 224.053 152.607 225.144 155.277C225.488 157.647 226.07 159.834 226.888 161.773C227.757 163.834 228.883 165.625 230.165 167.033C230.122 167.061 230.069 167.074 230.033 167.113C229.749 167.415 229.781 167.973 229.994 168.625C229.761 168.602 229.544 168.564 229.29 168.564C228.996 168.564 228.694 168.58 228.369 168.616C225.001 168.981 219.933 171.383 214.751 173.994C209.235 174.394 203.957 174.839 200.133 175.784C198.534 176.179 197.188 176.664 196.035 177.164C194.639 177.772 193.522 178.406 192.579 178.942C191.876 179.342 191.278 179.682 190.723 179.923C190.043 180.22 189.427 180.366 188.775 180.52C187.592 180.802 186.324 181.104 184.48 182.364C181.656 184.294 177.367 188.557 177.456 192.815C177.545 197.051 181.981 201.192 186.319 205.241C186.374 207.035 186.433 208.771 186.487 210.304C186.64 214.623 186.769 217.544 191.99 218.537C193.827 218.886 196.297 219 199.078 219C201.708 219 204.637 218.898 207.582 218.796C210.206 218.705 212.868 218.612 215.347 218.591C215.851 218.587 216.392 218.585 216.881 218.585C217.322 218.585 217.878 218.587 218.305 218.589C218.878 218.591 219.085 218.591 219.644 218.591C225.756 218.591 230.59 218.36 232.68 214.289C235.056 209.662 233.828 200.105 232.93 194.776C232.928 194.25 232.914 193.718 232.887 193.183C234.826 192.204 237.061 191.35 238.854 190.667L239.065 190.587C239.06 190.589 239.081 190.581 239.076 190.583C240.1 190.194 240.668 189.976 241.57 189.629C242.409 189.307 243.274 188.973 244.347 188.566C245.998 187.937 248.213 187.102 251.596 185.84C259.274 182.977 273.138 177.859 279.619 175.593C282.552 174.569 283.927 174.145 284.584 174.145C285.042 174.145 285.067 174.317 285.103 175.016C285.112 175.212 285.125 175.441 285.155 175.691C285.192 176 285.258 176.338 285.328 176.694C285.408 177.107 285.492 177.539 285.548 177.993C285.748 179.641 285.553 181.49 283.209 182.956C279.593 185.217 270.933 186.548 264.791 187.32C262.517 187.606 260.598 187.815 258.818 188.01C257.281 188.178 255.837 188.335 254.363 188.521C252.951 188.7 251.516 188.902 249.913 189.168C244.729 190.029 237.773 191.554 235.186 194.383C232.7 197.104 234.262 200.968 234.918 202.609C234.96 202.711 234.988 202.784 235.022 202.871V202.873C235.052 202.952 235.079 203.021 235.104 203.088C235.126 203.145 235.143 203.191 235.163 203.24C235.284 203.55 235.393 203.804 235.74 203.804C235.879 203.804 236.059 203.761 236.279 203.711C236.814 203.59 237.771 203.372 239.592 203.293C240.159 203.268 240.811 203.257 241.534 203.257C244.226 203.257 247.898 203.409 251.798 203.57C254.97 203.701 258.333 203.84 261.417 203.906C263.065 203.942 264.636 203.958 266.16 203.958C271.955 203.958 276.953 203.729 281.949 203.5H281.951H281.954C282.058 203.495 282.138 203.406 282.133 203.302C282.127 203.198 282.038 203.118 281.935 203.123H281.933C276.937 203.352 271.946 203.581 266.162 203.581C264.647 203.581 263.067 203.565 261.428 203.529C258.344 203.463 254.991 203.324 251.816 203.193C247.915 203.032 244.242 202.88 241.537 202.88C240.809 202.88 240.156 202.891 239.579 202.916C237.73 202.996 236.75 203.218 236.2 203.343C235.959 203.399 235.831 203.425 235.745 203.425C235.686 203.425 235.657 203.452 235.52 203.102C235.504 203.059 235.483 203.005 235.463 202.954C235.436 202.886 235.411 202.821 235.381 202.739L235.379 202.737C235.345 202.653 235.313 202.569 235.274 202.471C234.595 200.773 233.167 197.16 235.47 194.64C237.948 191.929 244.747 190.412 249.979 189.543C251.573 189.279 253.01 189.075 254.415 188.898C255.882 188.714 257.328 188.555 258.863 188.389C260.65 188.194 262.558 187.987 264.843 187.699C270.95 186.93 279.711 185.594 283.413 183.279C285.935 181.708 286.149 179.686 285.939 177.948ZM141.716 165.88C141.052 165.685 140.388 165.487 139.829 165.028C138.817 164.197 138.128 162.488 137.152 160.043C137.03 159.74 136.941 159.516 136.811 159.195C136.734 159.007 136.657 158.814 136.577 158.619C136.566 158.587 136.563 158.564 136.55 158.53C136.049 157.07 134.285 153.05 134.181 152.857C134.233 152.954 134.16 152.75 134.01 152.75L133.823 152.958C133.824 152.981 133.83 152.997 133.833 153.008L134.012 152.947L133.833 153.008C133.835 153.009 133.837 153.017 133.839 153.02C133.842 153.025 133.842 153.022 133.849 153.036C133.849 153.036 133.849 153.038 133.851 153.038C133.846 153.031 133.844 153.027 133.841 153.022C133.848 153.04 133.855 153.061 133.867 153.09C133.937 153.263 134.115 153.687 134.364 154.275C134.846 155.42 135.583 157.17 136.236 158.776C136.281 158.918 136.309 159.019 136.324 159.087C136.259 159.057 136.174 159.01 136.045 158.939C135.731 158.764 135.277 158.512 134.731 158.358C134.171 158.201 133.519 158.149 132.914 158.101C132.341 158.054 131.818 158.011 131.408 157.897C131.088 157.808 130.874 157.683 130.76 157.513C130.579 157.245 130.594 156.805 130.627 156.165C130.674 155.283 130.74 154.133 130.017 153.059C130.006 153.043 129.994 153.025 129.983 153.009C129.41 152.189 128.371 151.426 127.243 150.595C125.888 149.598 124.378 148.484 123.234 147.008C122.259 145.752 121.545 144.228 120.728 142.48C119.78 140.451 118.698 138.139 116.918 135.666C115.817 134.134 114.448 132.545 112.968 130.824C111.203 128.771 109.273 126.528 107.424 123.96C106.169 122.218 104.953 120.325 103.852 118.243C101.26 113.345 99.3018 107.388 97.6542 102.383C96.7028 99.4928 95.8567 96.914 95.0516 95.0518C93.8413 92.2478 92.7293 91.0666 91.992 90.282C91.6208 89.8889 91.3762 89.6244 91.2441 89.317C91.162 89.1258 91.1209 88.9095 91.1352 88.6272C91.2227 86.958 93.1987 83.2498 96.8241 81.9452C98.0862 81.4913 99.5553 81.3251 101.124 81.3251C103.231 81.3251 105.494 81.6235 107.641 81.9077C108.473 82.0185 109.298 82.1257 110.076 82.2132C111.453 82.3651 112.713 82.4509 113.803 82.526C114.639 82.5832 115.362 82.6314 115.969 82.6993C116.385 82.7458 116.697 82.8012 116.965 82.8638C116.943 82.8691 116.922 82.8709 116.902 82.8763C115.187 83.3945 114.252 85.8339 113.671 90.3946C113.089 94.9821 112.843 101.954 114.801 105.39C115.355 106.362 116.087 107.043 116.95 107.581C118.004 112.755 118.907 116.081 120.797 120.539C122.704 125.039 125.622 130.719 128.41 134.127C131.209 137.547 133.88 138.68 135.638 139.136C136.211 139.284 136.682 139.361 137.123 139.433C137.518 139.495 137.882 139.556 138.275 139.658C138.63 139.751 139.015 139.883 139.462 140.083C140.019 140.358 140.688 140.734 141.406 141.157C141.698 141.338 141.995 141.52 142.286 141.702C142.828 142.042 143.326 142.348 143.748 142.587C144.294 142.928 144.84 143.273 145.367 143.607C146.193 144.129 146.97 144.621 147.623 145.019C148.337 145.455 148.903 145.781 149.349 146.038C149.645 146.208 149.881 146.343 150.081 146.465C150.645 146.81 150.825 146.99 150.911 147.275C151.097 147.893 150.841 148.962 150.052 149.281C149.854 149.362 149.611 149.399 149.322 149.399C148.446 149.399 147.237 149.053 145.72 148.615C145.702 148.61 145.686 148.604 145.668 148.601C143.64 148.016 141.106 147.289 139.865 147.16C139.738 147.148 139.617 147.139 139.512 147.139C139.015 147.139 138.69 147.314 138.69 147.795C138.69 148.143 138.869 148.651 139.122 149.314C139.187 149.483 139.235 149.605 139.308 149.793C139.38 149.977 139.467 150.2 139.547 150.409C140.158 152.003 140.972 154.3 141.514 157.377C141.655 158.172 141.779 159.021 141.905 159.906C142.043 160.86 142.187 161.854 142.366 162.863C142.578 164.07 142.846 165.298 143.208 166.504C142.773 166.198 142.239 166.034 141.716 165.88ZM140.229 122.586C140.815 123.231 141.102 123.569 141.591 123.569C141.786 123.569 142.002 123.517 142.268 123.442C142.361 123.417 142.471 123.383 142.582 123.351C142.721 123.309 142.88 123.263 143.055 123.213C144.385 122.839 146.834 122.26 149.153 122.26C150.565 122.26 151.903 122.475 152.907 123.063C155.568 124.619 156.018 128.889 155.638 130.26C155.532 130.642 155.386 130.717 155.163 130.717C154.94 130.717 154.64 130.635 154.206 130.513C153.446 130.301 152.373 129.999 150.884 129.999C150.85 129.999 150.879 129.999 150.847 129.999C147.509 130.011 141.87 131.571 141.045 134.584C140.768 135.598 141.047 136.741 141.529 137.824C142.161 139.245 143.167 140.623 143.864 141.574C144.197 142.031 144.438 142.365 144.554 142.574C144.465 142.539 144.347 142.485 144.19 142.403C144.121 142.367 144.026 142.306 143.949 142.264C143.15 141.763 142.352 141.273 141.604 140.832C141.132 140.544 140.668 140.266 140.252 140.046C140.026 139.926 139.819 139.826 139.619 139.737C139.39 139.624 139.18 139.526 138.99 139.447C138.237 139.136 137.8 139.109 137.518 139.093C137.457 139.09 137.409 139.091 137.366 139.088C137.348 139.084 137.332 139.082 137.314 139.079C137.168 139.04 137.077 138.845 136.736 137.83C136.008 135.658 134.239 130.163 134.897 126.889C135.402 124.384 137.361 123.17 139.997 122.327C140.072 122.414 140.163 122.512 140.229 122.586ZM151.882 197.09C152.51 195.641 153.078 192.989 152.61 191.904C152.369 191.345 151.873 191.202 151.396 191.202C151.068 191.202 150.722 191.268 150.432 191.323C150.224 191.362 150.052 191.395 149.915 191.404C149.895 191.405 149.87 191.405 149.852 191.405C149.661 191.405 149.658 191.361 149.658 191.278C149.658 191.016 149.897 190.458 150.513 189.404C150.598 189.259 150.675 189.129 150.772 188.968C150.866 188.809 150.984 188.612 151.086 188.437C152.178 186.571 153.606 183.835 152.889 181.058C152.448 179.355 151.2 177.654 149.847 176.065C150.543 176.676 151.23 177.251 151.866 177.78C152.794 178.552 153.608 179.228 154.21 179.827C155.745 181.353 155.861 182.329 155.986 183.342C155.988 183.354 155.989 183.367 155.991 183.379C155.727 183.667 155.532 184.008 155.443 184.437C155.14 185.892 156.059 188.271 158.162 189.205C158.163 189.343 158.171 189.482 158.185 189.625C158.26 190.41 158.492 191.337 158.708 192.197C158.904 192.982 159.085 193.705 159.136 194.25C159.179 194.703 159.133 195.019 159.045 195.253C158.92 195.589 158.708 195.778 158.49 195.971C158.324 196.118 158.128 196.286 158.037 196.533C158.031 196.549 158.028 196.566 158.022 196.584C155.657 196.779 153.405 197.051 151.737 197.385C151.787 197.285 151.832 197.204 151.882 197.09ZM159.215 182.055C159.417 181.964 159.622 181.869 159.825 181.775C160.793 181.322 161.718 180.895 162.49 180.895C162.721 180.895 162.933 180.938 163.128 181.026C163.306 181.653 163.522 182.279 163.731 182.883C164.013 183.701 164.275 184.471 164.434 185.17C164.338 185.906 164.101 186.559 163.669 186.927C163.171 187.35 162.398 187.429 161.539 187.429C161.348 187.429 161.145 187.425 160.954 187.422C160.766 187.418 160.575 187.415 160.391 187.415C159.69 187.415 158.981 187.479 158.567 187.895C157.628 186.789 156.828 185.451 156.539 184.336C156.468 184.06 156.428 183.796 156.395 183.531C156.746 183.197 157.223 182.927 157.812 182.663C158.017 182.57 158.247 182.473 158.471 182.379C158.708 182.277 158.965 182.168 159.215 182.055ZM158.619 188.525C158.795 188.716 158.972 188.898 159.152 189.066C159.188 189.1 159.222 189.123 159.258 189.155C159.013 189.107 158.772 189.05 158.551 188.968C158.558 188.802 158.581 188.651 158.619 188.525ZM156.173 184.43C156.487 185.637 157.348 187.057 158.34 188.21C158.258 188.383 158.206 188.578 158.183 188.796C156.346 187.895 155.552 185.774 155.814 184.516C155.863 184.286 155.948 184.084 156.066 183.901C156.093 184.073 156.127 184.248 156.173 184.43ZM151.53 197.816C153.178 197.462 155.509 197.171 157.985 196.967C158.037 197.691 158.715 198.581 159.849 198.827C160.107 198.884 160.386 198.906 160.684 198.906C160.946 198.906 161.219 198.888 161.51 198.859C162.042 198.806 162.623 198.711 163.242 198.609C163.967 198.491 164.747 198.364 165.573 198.28C166.012 198.236 166.457 198.207 166.891 198.189C166.485 198.443 165.73 198.718 164.497 198.897C163.181 199.088 161.386 199.161 159.55 199.161C157.019 199.161 154.424 199.022 152.942 198.866C151.375 198.702 151.284 198.522 151.3 198.375C151.311 198.254 151.396 198.078 151.53 197.816ZM169.372 198.363C169.331 198.404 169.24 198.477 169.043 198.577C167.553 199.331 161.955 200.752 156.9 200.752C156.768 200.752 156.632 200.75 156.502 200.748C152.651 200.689 149.42 199.774 149.124 198.99C149.067 198.836 149.138 198.557 149.99 198.236C150.279 198.127 150.645 198.021 151.061 197.921C150.993 198.068 150.939 198.211 150.925 198.336C150.861 198.947 151.571 199.102 152.905 199.242C154.404 199.399 157.009 199.538 159.552 199.538C161.394 199.538 163.21 199.465 164.554 199.27C166.103 199.045 167.107 198.643 167.481 198.171C167.553 198.17 167.633 198.164 167.703 198.164C168.643 198.166 169.233 198.259 169.372 198.363ZM164.172 197.128C165.109 197.153 165.982 197.176 166.557 197.31C167.198 197.458 167.292 197.687 167.267 197.798C167.267 197.8 167.265 197.8 167.265 197.801C166.707 197.816 166.118 197.846 165.536 197.905C164.697 197.991 163.908 198.119 163.183 198.237C162.56 198.339 161.991 198.43 161.473 198.484C161.189 198.513 160.93 198.529 160.684 198.529C160.406 198.529 160.154 198.507 159.929 198.457C158.911 198.236 158.399 197.458 158.36 196.936C159.22 196.869 160.091 196.811 160.955 196.765C161.746 197.069 163.03 197.097 164.172 197.128ZM161.507 192.036C161.432 192.494 161.157 193.057 160.861 193.662C160.572 194.254 160.259 194.885 160.172 195.421C160.111 195.786 160.157 196.141 160.406 196.418C159.759 196.456 159.111 196.5 158.465 196.55C158.528 196.459 158.612 196.37 158.742 196.256C158.961 196.063 159.242 195.818 159.401 195.385C159.511 195.087 159.561 194.71 159.513 194.215C159.458 193.636 159.268 192.88 159.074 192.106C158.856 191.237 158.633 190.34 158.562 189.59C158.554 189.507 158.553 189.434 158.549 189.357C158.935 189.488 159.351 189.563 159.779 189.602C159.89 189.693 160.007 189.802 160.113 189.886C160.379 190.101 160.622 190.299 160.83 190.496C161.337 190.975 161.61 191.414 161.507 192.036ZM164.474 187.122C164.045 188.474 162.21 189.273 160.366 189.273C160.218 189.273 160.077 189.248 159.932 189.238C159.758 189.091 159.586 188.957 159.409 188.791C159.206 188.6 159.008 188.39 158.811 188.172C159.09 187.872 159.633 187.792 160.391 187.792C160.568 187.792 160.757 187.795 160.945 187.799C161.136 187.803 161.341 187.806 161.537 187.806C162.385 187.806 163.296 187.736 163.911 187.213C164.215 186.955 164.422 186.58 164.575 186.16C164.593 186.509 164.566 186.83 164.474 187.122ZM164.445 183.824C164.331 183.472 164.209 183.117 164.086 182.759C163.935 182.323 163.788 181.882 163.651 181.444C164.079 181.971 164.358 182.879 164.445 183.824ZM156.996 131.541C157.696 134.082 158.626 137.19 159.606 140.462C161.22 145.856 162.969 151.701 164.052 156.228C165.793 163.501 165.809 167.351 164.998 170.484C164.711 171.592 164.322 172.612 163.942 173.606C163.247 175.42 162.583 177.15 162.737 179.055C162.778 179.56 162.887 180.077 163.017 180.595C162.846 180.549 162.671 180.52 162.489 180.52C161.614 180.52 160.605 180.995 159.665 181.435C159.468 181.526 159.252 181.628 159.06 181.714C158.813 181.825 158.56 181.932 158.321 182.034C158.103 182.127 157.858 182.23 157.655 182.321C157.164 182.541 156.707 182.777 156.33 183.074C156.2 182.082 155.977 181.054 154.476 179.564C153.86 178.951 153.03 178.263 152.107 177.495C149.897 175.657 147.157 173.366 145.415 170.593C144.945 169.767 144.635 169.033 144.39 168.42C144.208 167.967 144.035 167.581 143.839 167.244C143.337 165.793 142.996 164.286 142.732 162.801C142.555 161.798 142.412 160.81 142.273 159.854C142.145 158.971 142.021 158.117 141.88 157.315C141.331 154.203 140.508 151.882 139.894 150.277C139.81 150.057 139.729 149.852 139.654 149.659C139.581 149.467 139.535 149.351 139.471 149.181C139.208 148.493 139.064 148.061 139.064 147.798C139.064 147.623 139.108 147.519 139.508 147.519C139.596 147.519 139.704 147.527 139.822 147.537C141.022 147.662 143.512 148.375 145.559 148.965C145.565 148.967 145.604 148.978 145.611 148.979C147.105 149.41 148.376 149.78 149.319 149.78C149.64 149.78 149.933 149.737 150.19 149.634C151.221 149.217 151.491 147.904 151.268 147.167C151.138 146.737 150.843 146.492 150.274 146.143C150.07 146.018 149.826 145.879 149.533 145.711C149.087 145.455 148.524 145.132 147.816 144.698C147.164 144.299 146.393 143.813 145.565 143.289C145.359 143.159 145.147 143.025 144.936 142.893C144.968 142.85 145.001 142.805 145.001 142.735C145.001 142.725 145.001 142.712 144.999 142.701C144.993 142.641 144.972 142.578 144.945 142.519C144.836 142.276 144.531 141.858 144.163 141.356C143.465 140.4 142.482 139.054 141.87 137.676C141.4 136.618 141.163 135.576 141.406 134.688C142.148 131.973 147.473 130.392 150.845 130.381C150.879 130.381 150.848 130.381 150.882 130.381C152.316 130.381 153.349 130.671 154.103 130.881C154.515 130.996 154.874 131.099 155.161 131.099C155.593 131.099 155.859 130.871 155.998 130.365C156.141 129.845 156.175 128.941 156.034 127.918C156.055 127.997 156.073 128.069 156.095 128.149C156.355 129.144 156.648 130.274 156.996 131.541ZM142.328 121.69C144.74 121.117 147.398 120.636 149.595 120.636C150.827 120.636 151.898 120.788 152.694 121.145C154.06 121.757 154.677 123.013 155.406 125.559C154.931 124.426 154.192 123.379 153.098 122.739C152.009 122.103 150.593 121.885 149.154 121.885C146.786 121.885 144.296 122.475 142.955 122.852C142.773 122.904 142.623 122.947 142.478 122.99C142.366 123.022 142.259 123.054 142.17 123.079C141.902 123.154 141.73 123.192 141.597 123.192C141.313 123.192 141.152 123.036 140.513 122.332C140.481 122.296 140.434 122.246 140.401 122.209C141.013 122.025 141.652 121.851 142.328 121.69ZM120.94 109.245C122.425 109.74 124.067 110.287 125.817 111.168C130.729 113.641 136.516 118.761 139.015 121.294C139.283 121.565 139.513 121.807 139.713 122.021C137.104 122.879 135.06 124.164 134.526 126.818C133.842 130.211 135.659 135.817 136.377 137.953C136.54 138.437 136.65 138.763 136.756 138.988C136.44 138.934 136.113 138.872 135.729 138.772C134.042 138.334 131.443 137.24 128.7 133.887C125.945 130.522 123.043 124.882 121.142 120.393C119.305 116.059 118.407 112.8 117.386 107.831C117.477 107.881 117.561 107.939 117.654 107.985C118.621 108.475 119.733 108.845 120.94 109.245ZM117.211 84.6616C116.552 85.8143 115.535 87.596 115.185 90.3624C114.619 94.8248 115.794 101.83 116.843 107.056C116.16 106.579 115.58 105.996 115.128 105.204C113.241 101.893 113.459 95.05 114.044 90.4429C114.632 85.8089 115.567 83.6733 117.009 83.2391C117.211 83.1783 117.432 83.1586 117.664 83.1533C117.698 83.1854 117.745 83.2158 117.761 83.2516C117.864 83.4714 117.675 83.8467 117.211 84.6616ZM194.728 140.614C194.632 140.812 194.541 141.011 194.459 141.211C194.436 141.172 194.418 141.132 194.394 141.093C194.216 140.793 193.998 140.491 193.791 140.189C194.109 140.262 194.425 140.4 194.728 140.614ZM194.014 142.367C193.666 143.329 193.391 144.058 193.013 144.324C192.897 144.406 192.768 144.442 192.631 144.442C192.52 144.442 192.401 144.417 192.274 144.369C191.376 144.022 190.48 142.587 190.894 141.513C191.185 140.757 192.145 140.117 193.213 140.117C193.24 140.117 193.265 140.123 193.291 140.123C193.566 140.512 193.838 140.9 194.066 141.284C194.141 141.411 194.203 141.538 194.273 141.663C194.184 141.904 194.096 142.142 194.014 142.367ZM190.846 162.88C190.66 162.88 190.498 162.837 190.358 162.753C190.078 162.585 189.855 162.229 189.709 161.747C189.255 160.261 189.644 158.201 190.383 157.976C190.433 157.96 190.487 157.953 190.546 157.953C191.367 157.953 192.665 159.38 193.661 160.774C192.649 162.147 191.592 162.88 190.846 162.88ZM184.964 178.656C184.846 178.656 184.739 178.644 184.643 178.62C183.841 178.424 183.593 177.318 183.797 176.481C183.906 176.033 184.1 175.85 184.245 175.85C184.27 175.85 184.298 175.854 184.332 175.866C184.587 175.958 184.932 176.379 185.391 176.957C185.714 177.364 186.087 177.82 186.492 178.197C185.912 178.493 185.384 178.656 184.964 178.656ZM188.636 178.283C188.386 178.47 188.154 178.544 187.936 178.544C187.811 178.544 187.686 178.52 187.561 178.476C187.422 178.427 187.286 178.342 187.153 178.25C188.522 177.414 190.023 175.927 191.181 173.917C190.334 175.934 189.452 177.666 188.636 178.283ZM194.85 164.531C194.759 164.765 194.641 165.033 194.502 165.358C194.296 165.834 194.043 166.418 193.747 167.174C193.518 167.758 193.268 168.439 192.999 169.17C193.248 168.178 193.463 167.149 193.648 166.084C193.893 164.676 194.098 163.207 194.303 161.738C194.432 161.941 194.548 162.138 194.65 162.318C195.187 163.278 195.2 163.637 194.85 164.531ZM195.842 141.978C197.318 144.946 197.174 151.944 195.699 156.621C195.405 157.556 195.055 158.376 194.682 159.107C194.785 158.419 194.891 157.734 195.009 157.055C195.133 156.337 195.271 155.617 195.405 154.911C196.263 150.406 197.081 146.1 194.691 141.638C194.794 141.374 194.907 141.113 195.028 140.859C195.328 141.139 195.607 141.502 195.842 141.978ZM196.292 97.4269C195.441 96.9443 197.492 92.2997 199.701 88.0732C201.843 83.9789 203.728 81.0195 204.419 81.0195C204.425 81.0195 204.43 81.0195 204.434 81.0195C204.441 81.0195 204.45 81.023 204.455 81.0248C204.967 81.2053 204.771 84.1898 203.637 87.4155C203.038 89.1204 202.211 90.7735 201.292 92.4569C200.908 93.1575 200.501 93.8795 200.096 94.5961C199.762 95.1858 199.421 95.797 199.084 96.4064C199.012 96.4422 198.939 96.4797 198.868 96.5154C197.827 97.0426 196.974 97.4698 196.488 97.4698C196.399 97.468 196.335 97.4519 196.292 97.4269ZM245.331 73.8853C245.34 74.1784 245.298 74.4358 245.236 74.677C244.984 74.5358 244.733 74.3947 244.465 74.2714C242.176 73.2152 239.279 72.8131 236.527 72.5164C235.806 70.908 235.533 68.9315 235.634 66.9407C235.674 66.971 235.711 66.9978 235.75 67.0264C236.955 67.9396 238.289 68.9547 239.827 69.2335C240.131 69.2889 240.441 69.3139 240.754 69.3139C241.578 69.3139 242.426 69.1156 243.247 68.7903C244.488 70.6578 245.293 72.5361 245.331 73.8853ZM245.122 75.0434C244.713 75.9763 243.742 76.4481 242.542 76.482C242.498 76.4838 242.451 76.4838 242.407 76.4838C240.743 76.4838 238.753 75.651 237.476 74.0944C237.185 73.7406 236.937 73.3421 236.718 72.9203C239.397 73.2152 242.141 73.6155 244.306 74.6163C244.59 74.7449 244.858 74.8915 245.122 75.0434ZM236.095 72.47C235.847 72.4432 235.599 72.4181 235.354 72.3913C232.728 72.1197 230.358 71.8713 228.837 71.1689C228.357 70.9473 227.973 70.6846 227.694 70.3719C227.293 69.9198 227.118 69.3264 227.096 68.6742C227.328 68.4686 227.561 68.2613 227.796 68.0451C229.306 66.6619 230.847 65.2679 232.319 65.2679C232.35 65.2679 232.386 65.2679 232.418 65.2697C232.527 65.2751 232.634 65.2876 232.744 65.3072C233.56 65.4556 234.385 66.0078 235.275 66.6726C235.136 68.7153 235.381 70.7686 236.095 72.47ZM235.665 66.4939C235.772 65.1375 236.043 63.7936 236.461 62.573C238.899 63.6452 241.329 66.0203 243.028 68.474C242.275 68.7635 241.5 68.9369 240.75 68.9369C240.457 68.9369 240.17 68.9118 239.892 68.8618C238.458 68.6027 237.198 67.6519 235.975 66.7262C235.873 66.6476 235.77 66.5725 235.665 66.4939ZM237.164 60.8967C238.703 57.8943 241.236 56.3771 243.387 56.3771C243.976 56.3771 244.535 56.4897 245.041 56.7166C247.407 57.7728 248.688 61.3542 247.521 64.2618C246.81 66.0328 245.186 67.5286 243.383 68.3239C241.641 65.7844 239.131 63.3289 236.589 62.2191C236.764 61.7563 236.952 61.3113 237.164 60.8967ZM229.581 63.7596C230.774 62.6999 232.28 61.9761 233.89 61.9761C234.088 61.9761 234.29 61.9868 234.49 62.01C235.024 62.0708 235.566 62.2263 236.113 62.4372C235.707 63.6166 235.434 64.9141 235.311 66.2294C234.481 65.62 233.653 65.0892 232.809 64.9355C232.684 64.9123 232.559 64.898 232.432 64.8926C232.396 64.8908 232.353 64.8908 232.318 64.8908C230.665 64.8908 229.001 66.4295 227.539 67.7681C227.387 67.9075 227.243 68.0326 227.095 68.1684C227.241 66.7101 228.155 65.0267 229.581 63.7596ZM212.22 105.233C212.034 104.18 211.843 103.101 211.392 102.036C210.942 100.972 210.233 99.9306 209.487 98.8315C208.312 97.1016 207.033 95.2126 206.395 92.7911C205.351 88.8148 206.042 83.3856 208.7 79.4254C211.358 75.4651 215.997 72.9543 219.114 71.8641C220.361 71.4281 221.361 71.2208 222.246 71.0367C223.566 70.7633 224.647 70.5417 225.87 69.6785C226.145 69.4855 226.427 69.2514 226.714 69.0066C226.784 69.6124 227.005 70.1682 227.411 70.6239C227.734 70.9884 228.167 71.278 228.678 71.5139C230.268 72.2484 232.716 72.5003 235.315 72.7684C235.631 72.8006 235.948 72.8345 236.268 72.8685C236.523 73.401 236.825 73.8943 237.185 74.3321C238.537 75.9798 240.636 76.8609 242.409 76.8609C242.457 76.8609 242.507 76.8609 242.555 76.8591C243.84 76.8233 244.961 76.2997 245.448 75.2382C249.924 78.0225 251.541 83.7787 251.321 90.1766C251.102 96.6298 248.999 103.633 245.425 109.207C245.066 108.689 244.722 108.398 244.333 108.398C244.163 108.398 243.999 108.448 243.837 108.537C243.797 108.559 243.758 108.582 243.719 108.607C243.106 109.006 242.373 109.988 241.539 111.102C240.281 112.782 238.746 114.831 236.896 116.031C235.356 117.031 233.585 117.446 231.657 117.446C230.434 117.446 229.147 117.264 227.821 116.976C227.609 116.712 227.396 116.438 227.175 116.154C226.072 114.733 224.829 113.13 223.002 111.918C221.179 110.71 218.784 109.894 216.418 109.09C215.18 108.668 213.955 108.244 212.813 107.774C212.53 106.941 212.372 106.096 212.22 105.233ZM225.194 116.283C220.752 114.892 216.086 112.551 214.039 110.026C213.585 109.467 213.259 108.895 213.014 108.317C213.005 108.298 213 108.276 212.993 108.257C214.06 108.682 215.185 109.064 216.301 109.445C218.678 110.255 221.022 111.055 222.796 112.231C224.565 113.405 225.774 114.958 226.88 116.384C227.002 116.542 227.121 116.692 227.241 116.844C226.566 116.681 225.884 116.499 225.194 116.283ZM244.672 110.376C240.788 115.882 235.399 119.66 232.014 119.66C231.862 119.66 231.716 119.653 231.573 119.637C230.931 119.567 230.372 119.342 229.856 118.999C229.274 118.613 228.749 118.07 228.223 117.451C229.401 117.684 230.554 117.823 231.659 117.823C233.642 117.823 235.488 117.396 237.103 116.347C239.019 115.105 240.593 112.996 241.843 111.329C242.699 110.183 243.383 109.275 243.926 108.923C243.956 108.904 243.988 108.884 244.017 108.87C244.14 108.804 244.244 108.777 244.335 108.777C244.609 108.777 244.877 109.025 245.207 109.551C245.024 109.822 244.859 110.11 244.672 110.376ZM264.491 166.627C266.507 170.929 266.798 175.186 264.15 178.386C261.478 181.619 255.791 183.83 250.072 185.513C245.811 186.768 241.587 187.715 238.08 187.715C236.891 187.715 235.79 187.606 234.799 187.365C233.267 186.993 231.989 186.303 230.559 185.531C228.817 184.591 226.868 183.537 224.017 182.845C223.23 182.654 222.377 182.491 221.44 182.364C219.614 182.118 217.48 182.014 215.199 182.014C208.596 182.014 200.776 182.895 195.84 183.807C193.373 184.262 191.617 184.729 190.344 185.32C190.778 185.07 191.251 184.825 191.776 184.582C193.09 183.976 194.671 183.383 196.51 182.695C199.025 181.753 202.015 180.633 205.417 179.064C207.675 178.022 210.105 176.787 212.559 175.539C213.33 175.146 214.103 174.755 214.872 174.367C215.497 174.322 216.124 174.276 216.754 174.231C217.773 174.158 218.76 174.088 219.78 174.013H219.783H219.785C224.592 173.656 229.428 173.23 232.411 172.423C232.457 172.469 232.503 172.517 232.546 172.559C232.903 172.893 233.28 173.155 233.601 173.157C234.055 173.157 234.219 172.7 234.219 172.278C234.219 172.13 234.196 171.963 234.158 171.792C234.665 171.538 235.04 171.259 235.224 170.943C235.356 170.716 235.386 170.48 235.368 170.242C235.559 170.278 235.749 170.31 235.94 170.33C236.161 170.353 236.382 170.362 236.604 170.362C237.36 170.362 238.117 170.239 238.876 170.039C240.127 169.708 241.395 169.167 242.691 168.613C244.076 168.021 245.495 167.415 246.98 167.022C248.79 166.545 250.707 166.382 252.578 166.382C254.802 166.382 256.953 166.611 258.781 166.808L258.829 166.813C260.145 166.954 261.301 167.079 262.219 167.079C263.194 167.079 263.988 166.931 264.4 166.443C264.431 166.504 264.463 166.566 264.491 166.627ZM232.425 193.954C232.471 194.222 232.521 194.511 232.571 194.806C232.577 196.298 232.496 197.73 232.405 198.87C232.202 201.39 231.952 202.165 231.525 202.165C231.375 202.165 231.157 202.08 230.847 201.858C229.56 200.94 227.462 198.345 228.903 196.15C229.528 195.198 230.809 194.299 232.337 193.48C232.368 193.639 232.394 193.78 232.425 193.954ZM231.507 189.155C231.361 189.155 231.304 189.282 231.289 189.316C231.247 189.42 231.236 189.586 231.236 189.743C231.236 189.761 231.236 189.786 231.236 189.806C231.236 189.836 231.238 189.877 231.238 189.91C231.24 189.949 231.24 189.981 231.241 190.02C231.254 190.751 231.186 192.181 224.587 193.419C219.812 194.315 211.679 195.097 204.51 195.097C200.976 195.097 197.681 194.906 195.146 194.449C190.428 193.596 188.506 191.868 188.786 190.317C188.973 189.279 190.137 188.171 192.411 187.282C198.161 185.04 210.524 184.4 218.451 184.284C219.167 184.273 219.913 184.266 220.552 184.266C227.016 184.266 229.851 184.865 231.257 187.413C231.907 188.589 232.25 190.194 232.423 191.89C232.078 190.17 231.85 189.429 231.695 189.248C231.67 189.22 231.605 189.155 231.507 189.155ZM186.489 194.361C186.489 191.8 186.649 189.772 187.497 188.14C187.272 188.682 187.108 189.293 186.97 189.99C186.735 191.209 186.587 192.705 186.489 194.361ZM233.84 172.276C233.84 172.68 233.696 172.777 233.601 172.777C233.449 172.777 233.18 172.626 232.826 172.299C233.185 172.19 233.51 172.076 233.799 171.954C233.819 172.067 233.84 172.181 233.84 172.276ZM232.543 172.005C231.793 171.213 231.041 170.064 230.6 169.083C232.462 169.472 233.398 170.661 233.706 171.604C233.374 171.747 232.983 171.879 232.543 172.005ZM223.678 146.513C223.585 138.952 227.652 130.869 228.707 129.657C228.701 129.706 228.699 129.743 228.689 129.813C228.587 130.447 228.25 131.648 227.812 133.214C227.036 135.989 225.95 139.865 225.354 143.55C224.774 147.148 224.663 150.561 224.963 153.688C224.198 151.446 223.708 149.013 223.678 146.513ZM227.254 161.63C226.623 160.135 226.145 158.476 225.795 156.707C227.521 160.32 229.858 163.192 231.879 164.645C233.096 165.521 234.21 165.896 235.293 165.896C237.353 165.896 239.249 164.538 241.471 162.958C241.637 162.84 241.818 162.712 241.987 162.592C245.368 160.199 249.629 157.416 253.54 157.416C253.895 157.416 254.252 157.44 254.6 157.488C258.586 158.044 262.137 161.941 264.209 166.052C263.965 166.509 263.335 166.7 262.221 166.7C261.328 166.7 260.193 166.579 258.87 166.436L258.822 166.431C256.998 166.234 254.827 166.003 252.58 166.003C250.688 166.003 248.736 166.168 246.885 166.656C245.37 167.056 243.928 167.673 242.544 168.264C241.243 168.82 240 169.351 238.781 169.672C238.046 169.867 237.321 169.983 236.605 169.983C236.395 169.983 236.188 169.973 235.979 169.953C235.747 169.93 235.515 169.889 235.283 169.839C234.986 169.016 234.042 168.205 233.137 167.673C232.321 167.194 231.425 166.859 230.784 166.859C230.706 166.859 230.633 166.879 230.558 166.892C229.274 165.51 228.135 163.721 227.254 161.63ZM234.824 169.721C233.464 169.32 232.132 168.468 230.913 167.253C231.452 167.29 232.207 167.565 232.946 168C233.812 168.507 234.51 169.134 234.824 169.721ZM230.326 167.376C230.351 167.349 230.397 167.329 230.438 167.31C231.825 168.756 233.38 169.749 234.983 170.153C235.024 170.368 235.002 170.571 234.897 170.752C234.751 171.002 234.449 171.229 234.046 171.44C233.664 170.328 232.548 169.016 230.427 168.664C230.208 168.069 230.135 167.58 230.326 167.376ZM228.428 168.995C228.737 168.961 229.03 168.945 229.308 168.945C229.615 168.945 229.885 168.983 230.156 169.018C230.59 170.082 231.404 171.304 232.123 172.115C229.258 172.843 224.61 173.275 219.756 173.636H219.753H219.751C218.712 173.713 217.764 173.781 216.727 173.854C216.404 173.877 216.083 173.901 215.76 173.924C220.652 171.477 225.31 169.333 228.428 168.995ZM177.854 192.81C177.769 188.764 181.896 184.605 184.712 182.679C186.499 181.457 187.713 181.169 188.88 180.892C189.532 180.736 190.176 180.584 190.892 180.273C191.469 180.023 192.086 179.671 192.784 179.274C193.727 178.738 194.828 178.113 196.205 177.514C197.34 177.021 198.666 176.544 200.244 176.154C203.825 175.27 208.709 174.825 213.892 174.44C213.391 174.694 212.889 174.948 212.388 175.203C209.931 176.453 207.509 177.684 205.258 178.722C201.87 180.286 198.891 181.401 196.378 182.343C194.544 183.029 192.945 183.628 191.617 184.241C190.612 184.704 189.753 185.181 189.054 185.715C186.133 187.949 186.067 191.16 186.119 195.628C186.151 198.363 186.231 201.613 186.324 204.712C182.028 200.696 177.936 196.763 177.854 192.81ZM232.364 214.118C230.399 217.946 225.852 218.214 219.664 218.214C219.169 218.214 218.833 218.212 218.325 218.212C217.832 218.21 217.405 218.21 216.898 218.21C216.39 218.21 215.886 218.212 215.362 218.215C212.871 218.237 210.212 218.33 207.586 218.421C204.641 218.523 201.717 218.625 199.096 218.625C196.319 218.625 193.877 218.51 192.079 218.169C187.16 217.234 187.038 214.614 186.883 210.295C186.826 208.671 186.763 206.826 186.705 204.918C186.68 199.192 186.665 193.528 187.34 190.063C188.006 186.644 189.305 185.397 195.906 184.178C200.822 183.27 208.621 182.393 215.197 182.393C217.466 182.393 219.583 182.497 221.388 182.741C222.313 182.867 223.153 183.027 223.926 183.215C225.308 183.551 226.472 183.973 227.507 184.425C225.786 184.016 223.532 183.891 220.554 183.891C219.901 183.891 219.176 183.898 218.446 183.908C210.537 184.023 198.098 184.661 192.274 186.932C189.982 187.826 188.638 189.003 188.413 190.251C188.061 192.206 190.437 193.984 195.078 194.82C197.647 195.283 200.965 195.475 204.51 195.475C211.7 195.475 219.855 194.692 224.656 193.789C231.14 192.572 231.623 191.119 231.618 190.061C231.766 190.587 231.98 191.532 232.268 193.089C230.647 193.948 229.267 194.908 228.589 195.943C226.948 198.443 229.349 201.254 230.629 202.167C230.952 202.398 231.252 202.544 231.527 202.544C232.396 202.544 232.6 201.152 232.782 198.902C232.83 198.312 232.871 197.623 232.903 196.899C233.712 202.358 234.401 210.152 232.364 214.118ZM244.231 188.214C243.148 188.626 242.303 188.95 241.454 189.277C240.622 189.597 239.92 189.867 238.971 190.228C238.965 190.229 238.96 190.231 238.951 190.235H238.949C238.937 190.24 238.933 190.24 238.944 190.237L238.74 190.313C237.025 190.966 234.829 191.8 232.88 192.772C232.744 190.703 232.386 188.671 231.589 187.229C231.334 186.768 231.032 186.371 230.683 186.024C231.993 186.73 233.237 187.374 234.71 187.731C235.738 187.981 236.87 188.092 238.08 188.092C241.643 188.092 245.911 187.131 250.179 185.874C250.652 185.735 251.127 185.59 251.6 185.444C251.562 185.458 251.521 185.472 251.484 185.486C248.074 186.759 245.909 187.574 244.231 188.214Z" fill="black"/>
</svg>
